<svg width="80" height="80" viewBox="0 0 80 80" fill="none" xmlns="http://www.w3.org/2000/svg">
<path d="M58.5 6.75C59.4737 8.04822 60 9.62722 60 11.25V17.045C60 17.5856 60.1064 18.1208 60.3133 18.6202C60.5202 19.1196 60.8234 19.5734 61.2056 19.9556C61.616 20.366 61.9415 20.8532 62.1636 21.3894C62.3857 21.9256 62.5 22.5003 62.5 23.0806C62.5 24.2527 62.0344 25.3768 61.2056 26.2056C60.3768 27.0344 59.2527 27.5 58.0806 27.5H41.9194C40.7473 27.5 39.6232 27.0344 38.7944 26.2056C37.9656 25.3768 37.5 24.2527 37.5 23.0806C37.5 22.5003 37.6143 21.9256 37.8364 21.3894C38.0585 20.8532 38.384 20.366 38.7944 19.9556C39.1766 19.5734 39.4798 19.1196 39.6867 18.6202C39.8936 18.1208 40 17.5856 40 17.045V11.25C40 9.62722 40.5263 8.04822 41.5 6.75C42.1985 5.81846 43.1044 5.06238 44.1458 4.54166C45.1873 4.02095 46.3356 3.7499 47.5 3.75H52.5C53.6644 3.7499 54.8127 4.02095 55.8542 4.54166C56.8956 5.06238 57.8015 5.81846 58.5 6.75Z" fill="#BFBFBD"/>
<path d="M57.5 18.75C57.5 20.7391 56.7098 22.6468 55.3033 24.0533C53.8968 25.4598 51.9891 26.25 50 26.25C49.4289 26.25 48.8597 26.1856 48.3031 26.0578C46.6531 25.6733 45.1817 24.7419 44.1281 23.4151C43.0746 22.0884 42.5007 20.4442 42.5 18.75V12.5C44.0024 12.5002 45.4752 12.0819 46.7533 11.2921C48.0314 10.5022 49.0642 9.37201 49.7359 8.02813L50 7.5C50.1125 7.5 50.225 7.50469 50.3359 7.51406C51.3961 7.59837 52.3858 8.07844 53.1084 8.85887C53.8309 9.63931 54.2334 10.663 54.2359 11.7266C54.2359 11.9626 54.2166 12.1983 54.1781 12.4312L53.9172 14C53.7563 14.9623 53.9458 15.9504 54.4512 16.7849C54.9567 17.6195 55.7445 18.2452 56.6719 18.5484C56.9432 18.6337 57.2198 18.701 57.5 18.75Z" fill="#FFD5B2"/>
<path d="M57.5016 18.7496C57.5016 20.7387 56.7114 22.6464 55.3049 24.0529C53.8983 25.4594 51.9907 26.2496 50.0016 26.2496C49.4305 26.2497 48.8613 26.1852 48.3047 26.0574C49.394 25.0095 50.2601 23.7522 50.8511 22.3611C51.4421 20.9699 51.7457 19.4736 51.7437 17.9621V12.9621C51.7471 11.0558 51.263 9.18026 50.3375 7.51367C51.3977 7.59798 52.3874 8.07804 53.1099 8.85848C53.8325 9.63892 54.235 10.6626 54.2375 11.7262C54.2375 11.9623 54.2181 12.1979 54.1797 12.4309L53.9187 13.9996C53.7579 14.9619 53.9474 15.95 54.4528 16.7846C54.9582 17.6191 55.7461 18.2448 56.6734 18.548C56.9448 18.6333 57.2214 18.7006 57.5016 18.7496Z" fill="#FFD5B2"/>
<path d="M61.25 32.5V53.75H40V32.5C40 31.1739 40.5268 29.9022 41.4645 28.9645C42.4021 28.0268 43.6739 27.5 45 27.5H56.25C56.9067 27.4996 57.5571 27.6287 58.1639 27.8798C58.7707 28.1309 59.322 28.4992 59.7864 28.9636C60.2508 29.428 60.6191 29.9793 60.8702 30.5861C61.1213 31.1929 61.2504 31.8433 61.25 32.5Z" fill="#D3669A"/>
<path d="M61.25 32.4988V53.7488H40V43.5113C47.2181 39.7905 53.4908 34.4697 58.3391 27.9551C59.2079 28.3549 59.9439 28.9954 60.4599 29.8007C60.9758 30.606 61.25 31.5424 61.25 32.4988Z" fill="#CC6395"/>
<path d="M37.5 11.25V16.25C37.5004 18.2121 36.7317 20.0961 35.3587 21.4977C33.9857 22.8993 32.1179 23.7068 30.1562 23.7469C30.1047 23.75 30.0516 23.75 30 23.75C28.0109 23.75 26.1032 22.9598 24.6967 21.5533C23.2902 20.1468 22.5 18.2391 22.5 16.25V11.25C22.5 9.26088 23.2902 7.35322 24.6967 5.9467C26.1032 4.54018 28.0109 3.75 30 3.75C31.9891 3.75 33.8968 4.54018 35.3033 5.9467C36.7098 7.35322 37.5 9.26088 37.5 11.25Z" fill="#FFD5B2"/>
<path d="M37.5 11.2493V16.2493C37.5004 18.2113 36.7317 20.0954 35.3587 21.497C33.9857 22.8986 32.1179 23.7061 30.1563 23.7462C31.3977 21.8974 32.0587 19.72 32.0547 17.493V12.493C32.0565 11.0154 31.7664 9.55197 31.2008 8.18684C30.6353 6.82171 29.8056 5.58179 28.7594 4.53834C28.5656 4.34459 28.3646 4.15761 28.1562 3.9774C29.2632 3.69722 30.4196 3.67341 31.5372 3.90779C32.6548 4.14217 33.7041 4.62855 34.6053 5.32988C35.5064 6.03121 36.2356 6.92898 36.7372 7.95479C37.2389 8.9806 37.4998 10.1074 37.5 11.2493Z" fill="#FFD5B2"/>
<path d="M22.5 16.25L24.7613 18.5113C25.1949 18.9446 25.7538 19.2306 26.3589 19.3288C26.9641 19.4269 27.5848 19.3322 28.1331 19.0581C28.5388 18.8554 28.9861 18.7499 29.4395 18.75H30.5605C31.014 18.75 31.4612 18.8556 31.8669 19.0584C32.4152 19.3325 33.0359 19.4272 33.6411 19.3291C34.2462 19.2309 34.8051 18.9449 35.2388 18.5116L37.5 16.25V22.5C37.5 23.8261 36.9732 25.0979 36.0355 26.0355C35.0979 26.9732 33.8261 27.5 32.5 27.5H27.5C26.1739 27.5 24.9021 26.9732 23.9645 26.0355C23.0268 25.0979 22.5 23.8261 22.5 22.5V16.25Z" fill="#2E4F5A"/>
<path d="M22.5 11.4241C22.5 10.7149 22.7817 10.0347 23.2832 9.53322C23.7847 9.03173 24.4649 8.75 25.1741 8.75H25.6188C26.0339 8.75002 26.4433 8.84669 26.8145 9.03234L28.1855 9.71766C28.5567 9.90331 28.9661 9.99998 29.3812 10H30.7231C31.071 10.0001 31.4156 9.93218 31.7375 9.80016L33.8125 8.94984C34.1341 8.81794 34.4783 8.75006 34.8259 8.75C35.5351 8.75 36.2153 9.03173 36.7168 9.53322C37.2183 10.0347 37.5 10.7149 37.5 11.4241V9.12844C37.5 8.243 37.2814 7.37125 36.8636 6.59058C36.4458 5.8099 35.8417 5.14445 35.105 4.65328C34.2215 4.06434 33.1834 3.75005 32.1216 3.75H27.8784C26.8166 3.75005 25.7785 4.06434 24.895 4.65328C24.1583 5.14445 23.5542 5.8099 23.1364 6.59058C22.7186 7.37125 22.5 8.243 22.5 9.12844V11.4241Z" fill="#2E4F5A"/>
<path d="M40 32.5V53.75H18.75V32.5C18.75 31.1739 19.2768 29.9022 20.2145 28.9645C21.1521 28.0268 22.4239 27.5 23.75 27.5H35C35.6569 27.4991 36.3074 27.6279 36.9144 27.8788C37.5215 28.1298 38.073 28.4981 38.5375 28.9625C39.0019 29.427 39.3702 29.9785 39.6212 30.5856C39.8721 31.1926 40.0009 31.8432 40 32.5Z" fill="#F35244"/>
<path d="M40 32.5V53.75H18.75V40.2812C25.5435 37.4094 31.6701 33.1643 36.7453 27.8125C37.7009 28.1691 38.5246 28.8091 39.1063 29.6468C39.688 30.4846 39.9998 31.4801 40 32.5Z" fill="#E64D40"/>
<path d="M18.75 53.75H40V76.25H18.75V53.75Z" fill="#F35244"/>
<path d="M23.75 47.5V68.75H10V51.25H3.75V47.5C3.75 45.8424 4.40848 44.2527 5.58058 43.0806C6.75269 41.9085 8.3424 41.25 10 41.25H17.5C19.1572 41.2512 20.7462 41.9101 21.918 43.082C23.0899 44.2538 23.7488 45.8428 23.75 47.5Z" fill="#1598FB"/>
<path d="M23.75 47.5004V68.7504H10V53.8926C14.0844 51.2145 17.9938 47.5676 21.5609 42.752C22.2483 43.3374 22.8001 44.0653 23.1781 44.8853C23.5561 45.7052 23.7512 46.5975 23.75 47.5004Z" fill="#0E82ED"/>
<path d="M10 68.75H23.75V76.25H10V68.75Z" fill="#7A432A"/>
<path d="M22.5 63.75H8.75C7.42392 63.75 6.15215 63.2232 5.21447 62.2855C4.27678 61.3479 3.75 60.0761 3.75 58.75V51.25H11.25V57.5H18.75L22.5 56.25V63.75Z" fill="#FFD5B2"/>
<path d="M75 76.25H55V43.75H70L70.5078 47.8156L72.5 63.75L75 76.25Z" fill="#1598FB"/>
<path d="M75 76.2488H55V60.9035C60.6187 58.3441 65.9656 54.1629 70.5078 47.8145L72.5 63.7488L75 76.2488Z" fill="#B5DBFF"/>
<path d="M55 43.75V60H48.75V50C48.75 48.3424 49.4085 46.7527 50.5806 45.5806C51.7527 44.4085 53.3424 43.75 55 43.75Z" fill="#FEB784"/>
<path d="M70 43.75V57.5H60V63.75H71.25C72.5761 63.75 73.8479 63.2232 74.7855 62.2855C75.7232 61.3479 76.25 60.0761 76.25 58.75V50C76.25 48.3424 75.5915 46.7527 74.4194 45.5806C73.2473 44.4085 71.6576 43.75 70 43.75Z" fill="#FFD5B2"/>
<path d="M23.75 32.5V36.25C23.75 38.2391 22.9598 40.1468 21.5533 41.5533C20.1468 42.9598 18.2391 43.75 16.25 43.75C16.1359 43.75 16.0219 43.7469 15.9094 43.7422C13.9812 43.6545 12.1611 42.8269 10.8276 41.4314C9.49416 40.036 8.75002 38.1801 8.75 36.25V32.5C8.75 30.5109 9.54018 28.6032 10.9467 27.1967C12.3532 25.7902 14.2609 25 16.25 25C16.4703 25 16.6875 25.0094 16.9016 25.0281C18.7707 25.1914 20.5109 26.0492 21.7787 27.4324C23.0464 28.8156 23.7498 30.6237 23.75 32.5Z" fill="#FFD5B2"/>
<path d="M23.7508 32.4992V36.2492C23.7508 38.2383 22.9606 40.146 21.5541 41.5525C20.1476 42.959 18.2399 43.7492 16.2508 43.7492C16.1367 43.7492 16.0227 43.7461 15.9102 43.7414C17.7581 41.6814 18.7783 39.0104 18.7742 36.243V31.243C18.778 29.0317 18.1266 26.8688 16.9023 25.0273C18.7715 25.1906 20.5117 26.0484 21.7794 27.4316C23.0472 28.8148 23.7506 30.6229 23.7508 32.4992Z" fill="#FFD5B2"/>
<path d="M8.75 32.5V30C8.75 29.0054 9.14509 28.0516 9.84835 27.3483C10.5516 26.6451 11.5054 26.25 12.5 26.25L8.75 32.5Z" fill="#2E4F5A"/>
<path d="M23.75 28.75V32.5L18.75 28.75H12.5C11.5054 28.75 10.5516 28.3549 9.84835 27.6517C9.14509 26.9484 8.75 25.9946 8.75 25V23.75H18.75C20.0761 23.75 21.3479 24.2768 22.2855 25.2145C23.2232 26.1521 23.75 27.4239 23.75 28.75Z" fill="#2E4F5A"/>
<path d="M71.25 28.75H67.5V33.75H71.25V38.75C71.25 40.0761 71.7768 41.3479 72.7145 42.2855C73.6521 43.2232 74.9239 43.75 76.25 43.75V33.75C76.25 32.4239 75.7232 31.1521 74.7855 30.2145C73.8479 29.2768 72.5761 28.75 71.25 28.75Z" fill="#BFBFBD"/>
<path d="M71.25 35V38.75C71.2502 40.602 70.565 42.3885 69.3265 43.7655C68.088 45.1424 66.3838 46.0124 64.5422 46.2078C64.2791 46.2361 64.0146 46.2501 63.75 46.25C61.7609 46.25 59.8532 45.4598 58.4467 44.0533C57.0402 42.6468 56.25 40.7391 56.25 38.75V35C56.25 33.0109 57.0402 31.1032 58.4467 29.6967C59.8532 28.2902 61.7609 27.5 63.75 27.5C63.9328 27.5 64.1141 27.5063 64.2938 27.5203C66.1837 27.6577 67.9515 28.5054 69.242 29.8929C70.5324 31.2805 71.2499 33.1051 71.25 35Z" fill="#FFD5B2"/>
<path d="M71.2492 34.9992V38.7492C71.2494 40.6012 70.5642 42.3877 69.3257 43.7647C68.0872 45.1417 66.3831 46.0116 64.5414 46.207C65.9737 44.2737 66.7451 41.9303 66.7414 39.5242V34.5242C66.7454 31.9789 65.8818 29.5082 64.293 27.5195C66.1829 27.6569 67.9507 28.5046 69.2412 29.8921C70.5317 31.2797 71.2491 33.1043 71.2492 34.9992Z" fill="#FFD5B2"/>
<path d="M56.25 36.25C56.25 36.25 62.5 36.25 66.25 31.25C66.25 31.25 67.5 35 71.25 36.25V33.75C71.25 31.7609 70.4598 29.8532 69.0533 28.4467C67.6468 27.0402 65.7391 26.25 63.75 26.25C61.7609 26.25 59.8532 27.0402 58.4467 28.4467C57.0402 29.8532 56.25 31.7609 56.25 33.75V36.25Z" fill="#BFBFBD"/>
<path d="M56.25 57.5H61.25V71.25H56.25V57.5Z" fill="#FFD5B2"/>
<path d="M6.25 40H7.5C8.16304 40 8.79893 40.2634 9.26777 40.7322C9.73661 41.2011 10 41.837 10 42.5V45H3.75V42.5C3.75 41.837 4.01339 41.2011 4.48223 40.7322C4.95107 40.2634 5.58696 40 6.25 40Z" fill="#FFD5B2"/>
<path d="M42.5 76.25H20L22.0563 65.9656L22.5 63.75V57.5C22.5 56.1739 23.0268 54.9022 23.9645 53.9645C24.9021 53.0268 26.1739 52.5 27.5 52.5H35C35.6568 52.499 36.3073 52.6279 36.9141 52.8791C37.5209 53.1304 38.0721 53.4991 38.5359 53.9641C38.6203 54.0484 38.7 54.1344 38.7781 54.225C39.5678 55.1331 40.0019 56.2965 40 57.5V63.75L42.5 76.25Z" fill="#F2F2F2"/>
<path d="M42.5 76.2496H20L22.0563 65.9652C27.9938 63.7887 33.7391 60.0512 38.7781 54.2246C39.5678 55.1327 40.0019 56.2962 40 57.4996V63.7496L42.5 76.2496Z" fill="#E0E0E0"/>
<path d="M23.75 71.25H28.75L27.5 58.75H22.5L23.75 71.25Z" fill="#FFD5B2"/>
<path d="M38.75 71.25H33.75L35 58.75H40L38.75 71.25Z" fill="#FFD5B2"/>
<path d="M18.75 51.25V43.75C18.75 42.4239 19.2768 41.1521 20.2145 40.2145C21.1521 39.2768 22.4239 38.75 23.75 38.75H27.5V43.75H23.75V46.25C23.75 47.5761 23.2232 48.8479 22.2855 49.7855C21.3479 50.7232 20.0761 51.25 18.75 51.25Z" fill="#2E4F5A"/>
<path d="M38.75 42.5V45C38.75 46.9891 37.9598 48.8968 36.5533 50.3033C35.1468 51.7098 33.2391 52.5 31.25 52.5C29.2609 52.5 27.3532 51.7098 25.9467 50.3033C24.5402 48.8968 23.75 46.9891 23.75 45V42.5C23.75 40.5109 24.5402 38.6032 25.9467 37.1967C27.3532 35.7902 29.2609 35 31.25 35C33.2391 35 35.1468 35.7902 36.5533 37.1967C37.9598 38.6032 38.75 40.5109 38.75 42.5Z" fill="#FFD5B2"/>
<path d="M38.7516 42.4984V44.9984C38.7515 46.5497 38.2706 48.0627 37.3752 49.3294C36.4798 50.5961 35.2139 51.5542 33.7516 52.0719C34.4892 50.5466 34.8712 48.8739 34.8687 47.1797V42.1797C34.8725 39.5919 33.9803 37.0826 32.3438 35.0781C34.1244 35.3405 35.7513 36.2344 36.9276 37.5966C38.104 38.9588 38.7513 40.6986 38.7516 42.4984Z" fill="#FFD5B2"/>
<path d="M38.75 42.5H37.6539C36.1818 42.5 34.7519 42.0079 33.5916 41.102C32.4312 40.196 31.607 38.9282 31.25 37.5C30.893 38.9282 30.0688 40.196 28.9084 41.102C27.7481 42.0079 26.3182 42.5 24.8461 42.5H23.75V41.25C23.75 39.2609 24.5402 37.3532 25.9467 35.9467C27.3532 34.5402 29.2609 33.75 31.25 33.75C33.2391 33.75 35.1468 34.5402 36.5533 35.9467C37.9598 37.3532 38.75 39.2609 38.75 41.25V42.5Z" fill="#2E4F5A"/>
<path d="M57.5 38.75V41.25C57.5 43.1474 56.7808 44.9743 55.4874 46.3626C54.1939 47.7508 52.4224 48.5972 50.5297 48.7313C50.3547 48.7438 50.1781 48.75 50 48.75C48.0109 48.75 46.1032 47.9598 44.6967 46.5533C43.2902 45.1468 42.5 43.2391 42.5 41.25V38.75C42.5 36.7609 43.2902 34.8532 44.6967 33.4467C46.1032 32.0402 48.0109 31.25 50 31.25C50.2542 31.2496 50.5082 31.2627 50.7609 31.2891C52.6087 31.4775 54.3208 32.3449 55.5657 33.7232C56.8107 35.1015 57.4999 36.8927 57.5 38.75Z" fill="#FFD5B2"/>
<path d="M57.5016 38.75V41.25C57.5016 43.1474 56.7824 44.9743 55.4889 46.3626C54.1955 47.7508 52.4239 48.5972 50.5312 48.7312C51.8331 46.8536 52.5289 44.6223 52.525 42.3375V37.3375C52.5284 35.1942 51.9166 33.095 50.7625 31.2891C52.6102 31.4775 54.3223 32.3448 55.5673 33.7232C56.8122 35.1015 57.5015 36.8927 57.5016 38.75Z" fill="#FFD5B2"/>
<path d="M53.7495 32.5C53.7495 32.5 52.4995 37.5 57.4995 38.75C57.4995 36.7609 56.7094 34.8532 55.3028 33.4467C53.8963 32.0402 51.9887 31.25 49.9995 31.25C48.2275 31.2502 46.5128 31.8778 45.1593 33.0216C43.8059 34.1654 42.9011 35.7514 42.6055 37.4986C43.6034 37.4792 51.4108 37.1773 53.7495 32.5Z" fill="#2E4F5A"/>
<path d="M61.25 53.75V57.5H56.25V65H43.75V57.5H38.75V53.75C38.75 52.4239 39.2768 51.1522 40.2145 50.2145C41.1521 49.2768 42.4239 48.75 43.75 48.75H56.25C56.9069 48.749 57.5575 48.8776 58.1646 49.1285C58.7717 49.3794 59.3233 49.7477 59.7878 50.2122C60.2523 50.6767 60.6206 51.2283 60.8715 51.8354C61.1224 52.4425 61.251 53.0931 61.25 53.75Z" fill="#0E82ED"/>
<path d="M61.25 53.75V57.5H56.25V65H43.75V59.8641C48.8953 57.6063 53.825 54.1453 58.1938 49.1406C59.0997 49.5236 59.8728 50.1651 60.4163 50.9848C60.9599 51.8046 61.2499 52.7664 61.25 53.75Z" fill="#1598FB"/>
<path d="M43.75 65H56.25V76.25H43.75V65Z" fill="#7A432A"/>
<path d="M48.75 68.75H51.25V76.25H48.75V68.75Z" fill="#5C2E1A"/>
<path d="M38.75 57.5H43.75V71.25H38.75V57.5Z" fill="#FFD5B2"/>
<path d="M45 55C45 54.3096 44.4404 53.75 43.75 53.75C43.0596 53.75 42.5 54.3096 42.5 55V57.5C42.5 58.1904 43.0596 58.75 43.75 58.75C44.4404 58.75 45 58.1904 45 57.5V55Z" fill="#2A71AD"/>
<path d="M57.5 55C57.5 54.3096 56.9404 53.75 56.25 53.75C55.5596 53.75 55 54.3096 55 55V57.5C55 58.1904 55.5596 58.75 56.25 58.75C56.9404 58.75 57.5 58.1904 57.5 57.5V55Z" fill="#2A71AD"/>
</svg>
