<svg width="80" height="80" viewBox="0 0 80 80" fill="none" xmlns="http://www.w3.org/2000/svg">
<g clip-path="url(#clip0)">
<path d="M70.625 11.7188V24.2188C70.625 25.5131 71.6744 26.5625 72.9688 26.5625C74.2631 26.5625 75.3125 25.5131 75.3125 24.2188V11.7188H70.625Z" fill="#FAD938"/>
<path d="M62.0312 32.8125H30.7812C29.4869 32.8125 28.4375 31.7631 28.4375 30.4687V12.3437C28.4375 11.0494 29.4869 10 30.7812 10H62.0312C63.3256 10 64.375 11.0494 64.375 12.3437V30.4687C64.375 31.7631 63.3256 32.8125 62.0312 32.8125Z" fill="#1598FB"/>
<path d="M62.0312 10H46.4062V32.8125H62.0312C63.3256 32.8125 64.375 31.7631 64.375 30.4687V12.3437C64.375 11.0494 63.3256 10 62.0312 10Z" fill="#1598FB"/>
<path d="M46.4062 23.4376C46.1425 23.4376 45.8786 23.3931 45.6262 23.304L19.0638 13.929C18.1267 13.5982 17.5 12.7125 17.5 11.7189C17.5 10.7253 18.1267 9.83949 19.0638 9.50871L45.6262 0.133711C46.1309 -0.0445703 46.6816 -0.0445703 47.1863 0.133711L73.7487 9.50871C74.6858 9.83949 75.3125 10.7253 75.3125 11.7189C75.3125 12.7125 74.6858 13.5982 73.7487 13.929L47.1863 23.304C46.9339 23.3931 46.67 23.4376 46.4062 23.4376Z" fill="#0E82ED"/>
<path d="M47.1863 23.3039L73.7488 13.9289C74.6858 13.5981 75.3125 12.7123 75.3125 11.7188C75.3125 10.7252 74.6858 9.83937 73.7488 9.50859L47.1863 0.133594C46.9339 0.0445313 46.67 0 46.4062 0V23.4375C46.67 23.4375 46.9339 23.393 47.1863 23.3039Z" fill="#0E82ED"/>
<path d="M75.7906 43.9772C73.2337 43.0908 70.4989 43.8919 68.8241 46.0176L58.318 59.3523C56.9761 61.0553 54.9631 62.032 52.795 62.032H51.7969C55.42 62.032 58.3747 59.1154 58.4366 55.5068C58.5002 51.7915 55.395 48.7508 51.6791 48.7508H35.12C29.5981 44.0529 21.5255 43.665 15.5594 47.9264L12.8125 49.8884V75.3132H30.7812H55.3605C60.8045 75.3132 65.8795 72.6239 68.9362 68.1192L78.9202 53.4061C79.6266 52.3651 80 51.1498 80 49.8914C80 47.185 78.3477 44.8634 75.7906 43.9772Z" fill="#FFD5B2"/>
<path d="M75.7906 43.9772C73.2337 43.0908 70.4989 43.8919 68.8241 46.0176L58.318 59.3523C56.9761 61.0553 54.9631 62.032 52.795 62.032H51.7969C55.42 62.032 58.3747 59.1154 58.4366 55.5068C58.5002 51.7915 55.395 48.7508 51.6791 48.7508H40V75.3132H55.3605C60.8045 75.3132 65.8795 72.6239 68.9362 68.1192L78.9202 53.4061C79.6266 52.3651 80 51.1498 80 49.8914C80 47.185 78.3477 44.8634 75.7906 43.9772Z" fill="#FFD5B2"/>
<path d="M31.875 64.377C31.875 65.6714 32.9244 66.7208 34.2188 66.7208H51.7969C58.0433 66.7208 63.125 61.6391 63.125 55.3927C63.125 54.7352 63.0655 54.0919 62.9575 53.4648L58.3178 59.3536C56.9759 61.0566 54.963 62.0333 52.7948 62.0333H51.7969H34.2188C32.9244 62.0333 31.875 63.0827 31.875 64.377Z" fill="#FFD5B2"/>
<path d="M58.3178 59.3536C56.9759 61.0566 54.963 62.0333 52.7948 62.0333H51.7969H40V66.7208H51.7969C58.0433 66.7208 63.125 61.6391 63.125 55.3927C63.125 54.7352 63.0655 54.0919 62.9575 53.4648L58.3178 59.3536Z" fill="#FFD5B2"/>
<path d="M11.7188 80H2.34375C1.04937 80 0 78.9506 0 77.6562V46.4062C0 45.1119 1.04937 44.0625 2.34375 44.0625H11.7188C13.0131 44.0625 14.0625 45.1119 14.0625 46.4062V77.6562C14.0625 78.9506 13.0131 80 11.7188 80Z" fill="#1598FB"/>
<path d="M11.7188 80H2.34375C1.04937 80 0 78.9506 0 77.6563V62.0312H14.0625V77.6563C14.0625 78.9506 13.0131 80 11.7188 80Z" fill="#1598FB"/>
</g>
<defs>
<clipPath id="clip0">
<rect width="80" height="80" fill="white"/>
</clipPath>
</defs>
</svg>
