<svg width="80" height="80" viewBox="0 0 80 80" fill="none" xmlns="http://www.w3.org/2000/svg">
<g clip-path="url(#clip0)">
<path d="M70.5131 78.4152V65.1782C70.5131 59.3848 66.5881 54.3273 60.9759 52.8893L50.1659 50.1198C48.7628 49.7602 47.7816 48.4959 47.7816 47.0476V39.9043H32.2159V47.0476C32.2159 48.496 31.2347 49.7602 29.8316 50.1198L19.0216 52.8895C13.4094 54.3274 9.48438 59.3848 9.48438 65.1784V78.4154C9.48438 79.2912 10.1944 80.0012 11.0702 80.0012H68.9277C69.8033 80.001 70.5131 79.291 70.5131 78.4152Z" fill="#0E82ED"/>
<path d="M32.2152 39.9043V47.0476C32.2152 48.0979 31.6975 49.0496 30.8789 49.6313C32.9442 52.4226 36.2594 54.2331 39.9981 54.2331C43.7369 54.2331 47.052 52.4226 49.1173 49.6313C48.2986 49.0496 47.7811 48.0979 47.7811 47.0476V39.9043H32.2152Z" fill="#FFD5B2"/>
<path d="M32.2141 39.9043V47.0476C32.2141 47.3993 32.1548 47.7393 32.0469 48.0587C34.3425 49.5258 37.0703 50.3765 39.9969 50.3765C42.9234 50.3765 45.6513 49.5258 47.9469 48.0587C47.8389 47.7393 47.7797 47.3993 47.7797 47.0476V39.9043H32.2141Z" fill="#FFD5B2"/>
<path d="M25.2188 30.8366V17.791H54.7831V30.8366C54.7831 39.0005 48.165 45.6188 40.0009 45.6188C31.837 45.6188 25.2188 39.0005 25.2188 30.8366Z" fill="#FFD5B2"/>
<path d="M50.0247 17.791V30.8366C50.0247 38.1907 44.6541 44.2896 37.6211 45.4274C38.3956 45.5527 39.1898 45.6188 39.9997 45.6188C48.1636 45.6188 54.7819 39.0007 54.7819 30.8366V17.791H50.0247Z" fill="#FFD5B2"/>
<path d="M58.6211 73.5723H70.5141V78.4146C70.5141 79.2904 69.8041 80.0004 68.9283 80.0004H58.6211V73.5723Z" fill="#FFD5B2"/>
<path d="M9.48453 73.5723H21.3775V80.0004H11.0702C10.1944 80.0004 9.48438 79.2904 9.48438 78.4146L9.48453 73.5723Z" fill="#FFD5B2"/>
<path d="M29.6558 66.4229C29.7909 66.9632 30.2758 67.324 30.8086 67.324C30.9041 67.324 31.0011 67.3124 31.098 67.2882C31.7352 67.1288 32.1227 66.483 31.9633 65.8459L28.1417 50.5596C28.1411 50.5573 28.1402 50.5551 28.1397 50.5527L25.8359 51.1429L29.6558 66.4229Z" fill="#766D78"/>
<path d="M48.6082 68.468C48.7049 68.4923 48.8019 68.5038 48.8975 68.5038C49.4303 68.5038 49.9153 68.143 50.0503 67.6027L54.1653 51.1429L51.8616 50.5527C51.861 50.5551 51.86 50.5573 51.8596 50.5596L47.7428 67.0257C47.5835 67.663 47.971 68.3087 48.6082 68.468Z" fill="#766D78"/>
<path d="M22.2382 20.3721H57.7613C58.5212 20.3721 58.9744 19.5252 58.553 18.8929L54.7819 13.2363H25.2176L21.4465 18.8929C21.0251 19.5252 21.4784 20.3721 22.2382 20.3721Z" fill="#FAD938"/>
<path d="M58.5517 18.8929L54.7806 13.2363H50.0234L53.7945 18.8929C54.2161 19.5252 53.7628 20.3721 53.0028 20.3721H57.76C58.5198 20.3721 58.9731 19.5251 58.5517 18.8929Z" fill="#FAD938"/>
<path d="M54.7831 13.2367H25.2188L27.9684 11.1717L26.0736 8.47953L27.1283 2.61047C27.3998 1.09953 28.7145 0 30.2497 0H49.752C51.2872 0 52.602 1.09953 52.8734 2.61047L53.9281 8.47953L51.9775 10.8608L54.7831 13.2367Z" fill="#FAD938"/>
<path d="M52.8708 2.61063C52.5992 1.09969 51.2845 0 49.7494 0H44.9922C46.5273 0 47.8422 1.09969 48.1136 2.61063L49.1683 8.47969H53.9255L52.8708 2.61063Z" fill="#FAD938"/>
<path d="M25.2188 13.2377H54.7831L53.9283 8.48047H26.0736L25.2188 13.2377Z" fill="white"/>
<path d="M53.9252 8.48047H49.168L50.0228 13.2377H54.78L53.9252 8.48047Z" fill="#FAD938"/>
<path d="M44.7478 63.5873V62.4065C44.7478 61.881 44.3219 61.4551 43.7964 61.4551H36.2034C35.678 61.4551 35.252 61.881 35.252 62.4065V63.5873C35.252 64.1127 34.8261 64.5387 34.3006 64.5387H28.9827C28.4572 64.5387 28.0312 64.9646 28.0312 65.4901V77.8588C28.0312 78.3843 28.4572 78.8102 28.9827 78.8102H51.017C51.5425 78.8102 51.9684 78.3843 51.9684 77.8588V65.4901C51.9684 64.9646 51.5425 64.5387 51.017 64.5387H45.6992C45.1738 64.5388 44.7478 64.1127 44.7478 63.5873Z" fill="#655E67"/>
<path d="M51.015 64.5391H46.2578C46.7833 64.5391 47.2092 64.965 47.2092 65.4905V77.8592C47.2092 78.3847 46.7833 78.8106 46.2578 78.8106H51.015C51.5405 78.8106 51.9664 78.3847 51.9664 77.8592V65.4905C51.9664 64.965 51.5405 64.5391 51.015 64.5391Z" fill="#544F56"/>
<path d="M28.0312 70.4863V72.8649H51.9684V70.4863H28.0312Z" fill="#766D78"/>
<path d="M51.9681 70.4863H47.2109V72.8649H51.9681V70.4863Z" fill="#655E67"/>
<path d="M40.0008 74.9879C41.8307 74.9879 43.3141 73.5045 43.3141 71.6746C43.3141 69.8447 41.8307 68.3613 40.0008 68.3613C38.1709 68.3613 36.6875 69.8447 36.6875 71.6746C36.6875 73.5045 38.1709 74.9879 40.0008 74.9879Z" fill="#F7F6F7"/>
<path d="M39.9984 68.3613C39.4847 68.3613 39.0003 68.4816 38.5664 68.6902C39.6781 69.2248 40.4475 70.3584 40.4475 71.6745C40.4475 72.9905 39.6781 74.1241 38.5664 74.6587C39.0003 74.8673 39.4848 74.9876 39.9984 74.9876C41.8283 74.9876 43.3117 73.5041 43.3117 71.6745C43.3117 69.8448 41.8283 68.3613 39.9984 68.3613Z" fill="#E2DFE3"/>
</g>
<defs>
<clipPath id="clip0">
<rect width="80" height="80" fill="white"/>
</clipPath>
</defs>
</svg>
