<svg width="80" height="80" viewBox="0 0 80 80" fill="none" xmlns="http://www.w3.org/2000/svg">
<g clip-path="url(#clip0)">
<path d="M69.979 33.6582L62.9062 40.731L66.942 56.74L80.0014 43.6806L69.979 33.6582Z" fill="#FAD938"/>
<path d="M36.5712 0.25L23.6406 13.1807L39.5094 17.3568L46.5937 10.2724L36.5712 0.25Z" fill="#FAD938"/>
<path d="M4.89662 46.3989L0 51.2953L17.8543 62.8131L27.8755 44.9629L4.89662 46.3989Z" fill="#1598FB"/>
<path d="M17.0039 61.7658L28.398 79.6938L33.2945 74.7976L34.7306 51.8184L17.0039 61.7658Z" fill="#0E82ED"/>
<path d="M62.761 23.9453L44.75 43.3968L67.3155 79.7525L75.987 71.0807L62.761 23.9453Z" fill="#0E82ED"/>
<path d="M9.15044 4.28516L0.488281 12.947L36.8548 35.5015L56.3082 17.4893L9.15044 4.28516Z" fill="#1598FB"/>
<path d="M77.4902 2.21615L16.799 62.9073L14.6367 60.7466L16.7234 55.4188C19.5803 48.9271 22.6056 44.2796 26.5365 40.3503L56.012 10.8748C59.8405 7.04631 64.8408 3.79418 70.871 1.20823L71.4159 0.975144C73.4711 0.0947863 75.8208 0.546777 77.4036 2.12796L77.4902 2.21615Z" fill="#EDF5FF"/>
<path d="M79.1141 8.67028C76.8447 13.9682 74.0981 19.5165 69.4112 24.2018L39.9011 53.7119C35.2726 58.3404 29.8455 61.0855 24.6705 63.3627L24.5807 63.4005L19.3442 65.4494L16.8008 62.906L77.492 2.21484L77.9613 2.68416C79.5424 4.26534 79.996 6.61506 79.1141 8.67028Z" fill="#EDF5FF"/>
</g>
<defs>
<clipPath id="clip0">
<rect width="80" height="80" fill="white"/>
</clipPath>
</defs>
</svg>
