<svg width="80" height="80" viewBox="0 0 80 80" fill="none" xmlns="http://www.w3.org/2000/svg">
<path d="M15.1719 5.51758V80.0003H70.3443V5.51758H15.1719Z" fill="#0E82ED"/>
<path d="M67.5857 15.1728L57.9305 5.51758H15.1719V77.2417H67.5857V15.1728Z" fill="#3086CD"/>
<path d="M9.65625 74.4828H64.8287V12.4138L52.4149 0H9.65625V74.4828Z" fill="#EDF5FF"/>
<path d="M64.8279 12.4138H52.4141V0L64.8279 12.4138Z" fill="#1598FB"/>
<path d="M64.8258 28.9648L19.3086 74.4821H64.8258V28.9648Z" fill="#EDF5FF"/>
<path d="M59.3093 68.965H31.7231C30.9613 68.965 30.3438 68.3474 30.3438 67.5857V56.5512C30.3438 55.7895 30.9613 55.1719 31.7231 55.1719H59.3093C60.071 55.1719 60.6886 55.7895 60.6886 56.5512V67.5857C60.6886 68.3474 60.071 68.965 59.3093 68.965ZM33.1024 66.2064H57.93V57.9305H33.1024V66.2064Z" fill="#1598FB"/>
<path d="M35.8633 60.6895H41.3805V63.4481H35.8633V60.6895Z" fill="#348FD9"/>
<path d="M44.1367 60.6895H55.1712V63.4481H44.1367V60.6895Z" fill="#348FD9"/>
<path d="M41.3789 44.1385L49.6541 35.8633L68.9644 55.1736L60.6892 63.4488L41.3789 44.1385Z" fill="#E0E0DE"/>
<path d="M71.7248 23.4492C67.1545 23.4492 63.4489 27.1548 63.4489 31.7251V32.4147L51.0352 45.5182L57.9317 52.4147L71.0352 40.0009H71.7248C76.2951 40.0009 80.0007 36.2954 80.0007 31.7251C80.0007 27.1548 76.2951 23.4492 71.7248 23.4492Z" fill="#FAD938"/>
<path d="M37.2422 48.2746L41.3801 44.1367L60.6905 63.4471L56.5525 67.585L37.2422 48.2746Z" fill="#EBEBE9"/>
<path d="M75.1163 24.1797C69.4017 38.6308 60.4732 45.53 54.5 48.9817L57.9328 52.4145L71.0362 40.0007H71.7259C75.6241 39.996 78.9909 37.271 79.8078 33.4591C80.6247 29.6471 78.6703 25.7819 75.1163 24.1797Z" fill="#FAD938"/>
<path d="M24.8281 38.6211H38.6212V41.3797H24.8281V38.6211Z" fill="#1598FB"/>
<path d="M16.5508 44.1387H33.1025V46.8973H16.5508V44.1387Z" fill="#1598FB"/>
<path d="M16.5508 33.1035H45.5163V35.8621H16.5508V33.1035Z" fill="#1598FB"/>
<path d="M16.5508 49.6562H24.8266V52.4149H16.5508V49.6562Z" fill="#1598FB"/>
<path d="M16.5508 55.1719H27.5853V57.9305H16.5508V55.1719Z" fill="#1598FB"/>
<path d="M16.5508 60.6895H27.5853V63.4481H16.5508V60.6895Z" fill="#1598FB"/>
<path d="M16.5508 66.207H27.5853V68.9656H16.5508V66.207Z" fill="#1598FB"/>
<path d="M16.5508 38.6211H22.068V41.3797H16.5508V38.6211Z" fill="#1598FB"/>
<path d="M27.5859 49.6562H33.1032V52.4149H27.5859V49.6562Z" fill="#1598FB"/>
<path d="M27.5859 26.207H33.1032V28.9657H27.5859V26.207Z" fill="#1598FB"/>
<path d="M35.8594 26.207H46.8939V28.9657H35.8594V26.207Z" fill="#1598FB"/>
<path d="M30.3448 20.69C30.3448 29.0696 23.552 35.8624 15.1724 35.8624C6.79283 35.8624 0 29.0696 0 20.69C0 12.3104 6.79283 5.51758 15.1724 5.51758C23.552 5.51758 30.3448 12.3104 30.3448 20.69Z" fill="#0E82ED"/>
<path d="M9.65612 28.966C9.29041 28.966 8.93952 28.8205 8.6809 28.5619L4.54297 24.424L6.4934 22.4735L9.65612 25.6362L22.474 12.8184L24.4244 14.7688L10.6313 28.5619C10.3727 28.8205 10.0218 28.966 9.65612 28.966Z" fill="white"/>
</svg>
