<svg width="80" height="80" viewBox="0 0 80 80" fill="none" xmlns="http://www.w3.org/2000/svg">
<path d="M40.0019 8.00383L72.7209 34.5124C74.0867 35.619 76.0677 35.5154 77.3105 34.2724C78.75 32.8329 78.6281 30.4643 77.0486 29.1801L42.0533 0.728672C40.8581 -0.242891 39.1455 -0.242891 37.9503 0.728672L2.95516 29.1801C1.37562 30.4643 1.25375 32.8329 2.69328 34.2724C3.93625 35.5154 5.91703 35.619 7.28281 34.5124L40.0019 8.00383Z" fill="#FAD938"/>
<path d="M34.3838 8.72922L2.76953 34.3425C4.01594 35.5161 5.94359 35.5969 7.28219 34.5125L40.0013 8.00391H36.4309C35.6855 8.00391 34.9628 8.26 34.3838 8.72922Z" fill="#FAD938"/>
<path d="M77.0486 29.1801L42.0533 0.728672C40.8581 -0.242891 39.1455 -0.242891 37.9503 0.728672L37.6406 0.980547L72.3261 29.1802C73.9056 30.4645 74.0275 32.833 72.588 34.2726C72.5633 34.2973 72.5364 34.3187 72.5111 34.3426L72.7209 34.5126C74.0867 35.6191 76.0677 35.5155 77.3105 34.2726C78.75 32.8329 78.6281 30.4643 77.0486 29.1801Z" fill="#FAD938"/>
<path d="M10.082 69.5934V32.2436L40.0008 8.00391L69.9195 32.2436V69.5934H10.082Z" fill="#EDF5FF"/>
<path d="M40 8.00391L62.6042 32.4778C64.2689 34.2802 65.1934 36.6438 65.1934 39.0972V69.5934H69.9188V32.2436L40 8.00391Z" fill="#EDF5FF"/>
<path d="M72.5211 74.797H7.48047V71.2034C7.48047 70.3144 8.20109 69.5938 9.09016 69.5938H70.9116C71.8006 69.5938 72.5213 70.3144 72.5213 71.2034V74.797H72.5211Z" fill="#1598FB"/>
<path d="M74.1655 80.0001H5.84016C4.95109 80.0001 4.23047 79.2795 4.23047 78.3904V76.4066C4.23047 75.5175 4.95109 74.7969 5.84016 74.7969H74.1656C75.0547 74.7969 75.7753 75.5175 75.7753 76.4066V78.3904C75.7752 79.2795 75.0545 80.0001 74.1655 80.0001Z" fill="#0E82ED"/>
<path d="M57.903 62.1142H22.098C21.2089 62.1142 20.4883 61.3936 20.4883 60.5045V42.602C20.4883 31.8258 29.2242 23.0898 40.0005 23.0898C50.7767 23.0898 59.5127 31.8258 59.5127 42.602V60.5045C59.5127 61.3936 58.792 62.1142 57.903 62.1142Z" fill="#1598FB"/>
<path d="M26.668 52.4094V56.0458H32.2091V62.1148H47.7934V56.0458H53.3345V52.4094C53.3345 47.8189 49.6133 44.0977 45.0228 44.0977H34.9795C30.3892 44.0977 26.668 47.8189 26.668 52.4094Z" fill="#F2F2F2"/>
<path d="M44.3281 62.1142H47.7914V54.3136C47.7914 53.3572 47.0161 52.582 46.0598 52.582C45.1034 52.582 44.3283 53.3573 44.3283 54.3136V62.1142H44.3281Z" fill="#F2F2F2"/>
<path d="M45.0219 44.0977H41.5586C46.1491 44.0977 49.8703 47.8189 49.8703 52.4094V56.0458H53.3334V52.4094C53.3334 47.8189 49.6122 44.0977 45.0219 44.0977Z" fill="#F2F2F2"/>
<path d="M47.793 56.0449H53.3341V62.114H47.793V56.0449Z" fill="#FFD5B2"/>
<path d="M26.668 56.0449H32.2091V62.114H26.668V56.0449Z" fill="#FFD5B2"/>
<path d="M40.0006 44.097C43.826 44.097 46.927 40.9959 46.927 37.1705C46.927 33.3452 43.826 30.2441 40.0006 30.2441C36.1753 30.2441 33.0742 33.3452 33.0742 37.1705C33.0742 40.9959 36.1753 44.097 40.0006 44.097Z" fill="#FFD5B2"/>
<path d="M43.1431 31C43.6248 31.9437 43.8981 33.0114 43.8981 34.1434C43.8981 37.9687 40.797 41.0698 36.9717 41.0698C35.8395 41.0698 34.7719 40.7964 33.8281 40.3148C34.9739 42.5595 37.3063 44.0977 39.9995 44.0977C43.8249 44.0977 46.9259 40.9966 46.9259 37.1712C46.9259 34.4783 45.3878 32.1458 43.1431 31Z" fill="#FFD5B2"/>
<path d="M29.7969 56.0453V52.5822C29.7969 51.9155 30.3373 51.375 31.0041 51.375C31.6708 51.375 32.2112 51.9155 32.2112 52.5822V56.0453H29.7969Z" fill="#F2F2F2"/>
</svg>
