<svg width="80" height="80" viewBox="0 0 80 80" fill="none" xmlns="http://www.w3.org/2000/svg">
<g clip-path="url(#clip0)">
<path d="M40 50.666H45.3331C52.697 50.666 58.6667 56.6357 58.6667 63.9996V79.9999H0V63.9996C0 56.6357 5.96953 50.666 13.3336 50.666H18.6669H40Z" fill="#1598FB"/>
<path d="M30.582 80.0004V73.334C30.582 72.6437 30.0225 72.084 29.332 72.084C28.6417 72.084 28.082 72.6435 28.082 73.334V80.0004H30.582Z" fill="#0E82ED"/>
<path d="M39.9561 50.666L45.028 63.2438C45.2053 63.6837 45.0493 64.1879 44.6543 64.4505L29.2896 74.6663H29.3325L14.0079 64.4496C13.6144 64.1873 13.4585 63.6852 13.6341 63.2462L18.666 50.666H39.9561Z" fill="#0E82ED"/>
<path d="M37.3322 61.3322L29.3322 74.6659L21.332 61.3322V53.332H37.3322V61.3322Z" fill="#C1C1C1"/>
<path d="M22.707 42.6662V53.3326H29.3306H35.9544V42.666L22.707 42.6662Z" fill="#FFD5B2"/>
<path d="M43.9989 20H46.6655C48.1383 20 49.3322 21.1939 49.3322 22.6667V29.3336C49.3322 30.8064 48.1383 32.0003 46.6655 32.0003H43.9989H14.6653H11.9988C10.5261 32.0003 9.33203 30.8064 9.33203 29.3336V22.6667C9.33203 21.1939 10.5259 20 11.9988 20H14.6653H43.9989Z" fill="#FFD5B2"/>
<path d="M30.5342 5.33398H38.6678C41.6133 5.33398 44.0011 7.7218 44.0011 10.6673V30.6674C44.0011 38.7676 37.4347 45.3341 29.3345 45.3341C21.2344 45.3341 14.668 38.7677 14.668 30.6674V10.6673C14.668 8.69352 15.7402 6.97008 17.3341 6.04789L30.5342 5.33398Z" fill="#FFD5B2"/>
<path d="M22.7108 46.666L18.668 50.6659L21.3342 61.3326L29.3344 53.3324L22.7108 46.666Z" fill="#EEEEEF"/>
<path d="M35.9597 46.666L40.0025 50.6659L37.3361 61.3326L29.3359 53.3324L35.9597 46.666Z" fill="#EEEEEF"/>
<path d="M29.3341 74.6663L32.2972 69.7279L30.6675 62.666H28.0008L26.3711 69.728L29.3341 74.6663Z" fill="#FAD938"/>
<path d="M74.6655 8H58.6652C55.7198 8 53.332 10.3878 53.332 13.3331V29.3333C53.332 32.2786 55.7198 34.6664 58.6652 34.6664H59.9986V36.9998C59.9986 37.9608 61.2219 38.3687 61.7987 37.5997L63.9986 34.6663H74.6655C77.6108 34.6663 79.9986 32.2784 79.9986 29.3331V13.3331C79.9986 10.3877 77.6109 8 74.6655 8Z" fill="#EEEEEF"/>
<path d="M61.8002 37.5995L64 34.666H60V36.9995C60.0002 37.9605 61.2234 38.3682 61.8002 37.5995Z" fill="#EEEEEF"/>
<path d="M74.668 8H70.668C73.6133 8 76.0011 10.3878 76.0011 13.3331V29.3333C76.0011 32.2786 73.6133 34.6664 70.668 34.6664H74.668C77.6133 34.6664 80.0011 32.2786 80.0011 29.3333V13.3331C80.0011 10.3877 77.6133 8 74.668 8Z" fill="#EEEEEF"/>
<path d="M44.0016 20.0004V10.6674C44.0016 7.72195 41.6136 5.33398 38.6681 5.33398H30.5345L17.3341 6.04789C15.7403 6.97023 14.668 8.69352 14.668 10.6674V20.0005C18.3498 20.0005 21.3345 17.0157 21.3345 13.3338H37.3345C37.3348 17.0157 40.3197 20.0005 44.0016 20.0004Z" fill="#2E4F5A"/>
<path d="M38.668 5.33398H34.668C37.6134 5.33398 40.0014 7.7218 40.0014 10.6674V18.6673C41.1156 19.5043 42.5004 20.0004 44.0012 20.0004V20.0002V10.6673C44.0012 7.7218 41.6134 5.33398 38.668 5.33398Z" fill="#2A4752"/>
<path d="M24 58.6656L28.0003 62.6656H30.667L34.6673 58.6656L29.3338 53.332L24 58.6656Z" fill="#FAD938"/>
<path d="M29.3361 53.332L27.3361 55.3322L30.6695 58.6656L27.3359 61.9989L28.0027 62.6656H30.6694L34.6697 58.6656L29.3361 53.332Z" fill="#FAD938"/>
<path d="M45.3323 50.666H41.332C48.6959 50.666 54.6656 56.6357 54.6656 63.9996V79.9999H58.6659V63.9996C58.6659 56.6357 52.6964 50.666 45.3323 50.666Z" fill="#0E82ED"/>
<path d="M42.6641 72.334V74.334C42.6641 74.8863 43.1117 75.3338 43.6641 75.3338H52.3308C52.8831 75.3338 53.3309 74.8862 53.3309 74.334V72.334C53.3309 71.7816 52.8833 71.334 52.3308 71.334H43.6642C43.1119 71.3338 42.6641 71.7816 42.6641 72.334Z" fill="white"/>
<path d="M49.332 71.334V75.334H52.3319C52.8842 75.334 53.3317 74.8863 53.3317 74.3341V72.3341C53.3317 71.7818 52.8841 71.3341 52.3319 71.3341H49.332V71.334Z" fill="white"/>
<path d="M77.2091 13.3407V13.3341C77.2091 13.3226 77.2077 13.3112 77.2073 13.2996C77.2066 13.273 77.2059 13.2463 77.2034 13.2199C77.202 13.2051 77.1992 13.1904 77.1973 13.1757C77.1941 13.1515 77.1913 13.1274 77.1866 13.1034C77.1839 13.0893 77.18 13.0755 77.1767 13.0615C77.1711 13.037 77.1656 13.0127 77.1584 12.9885C77.1547 12.9763 77.1502 12.9646 77.1463 12.9524C77.1378 12.927 77.1294 12.9016 77.1192 12.877C77.115 12.8668 77.11 12.857 77.1055 12.8468C77.0941 12.8209 77.0825 12.7949 77.0691 12.7698C77.0642 12.7605 77.0586 12.752 77.0536 12.743C77.0394 12.7179 77.0252 12.6929 77.0091 12.6685C77.0027 12.6587 76.9952 12.6495 76.9884 12.6399C76.9727 12.6176 76.9569 12.5952 76.9394 12.5737C76.9297 12.5618 76.9191 12.5507 76.9089 12.5391C76.893 12.521 76.8773 12.5027 76.8602 12.4854C76.8586 12.4838 76.8572 12.482 76.8556 12.4804C76.8428 12.4674 76.8286 12.4559 76.815 12.4437C76.802 12.4318 76.7897 12.419 76.7761 12.4076C76.7745 12.4063 76.7727 12.4052 76.7709 12.4037C76.7545 12.3901 76.7373 12.378 76.7202 12.3655C76.7045 12.354 76.6891 12.3415 76.6731 12.3307C76.6636 12.3245 76.6536 12.3191 76.6441 12.3132C76.4823 12.2112 76.3034 12.1509 76.1216 12.1329C76.1178 12.1326 76.1141 12.1326 76.1102 12.1323C76.075 12.1291 76.04 12.1271 76.0048 12.1271C76.0038 12.1271 76.0028 12.127 76.0016 12.127L73.335 12.1273C72.6683 12.1274 72.1278 12.6677 72.128 13.3346C72.128 14.0013 72.6686 14.5418 73.3353 14.5416H73.4197L67.9469 21.0918L64.8798 17.839C64.6306 17.5751 64.277 17.4384 63.9136 17.4632C63.5514 17.4896 63.2203 17.6777 63.0122 17.9754L56.4837 27.3088C56.1015 27.8552 56.2347 28.6079 56.7811 28.9899C56.9919 29.1374 57.2331 29.208 57.472 29.208C57.8526 29.208 58.2275 29.0284 58.4623 28.6926L64.1406 20.5745L67.123 23.7374C67.3597 23.9885 67.6928 24.1226 68.0375 24.116C68.3825 24.1057 68.7064 23.9482 68.9277 23.6834L74.9127 16.5199C75.1069 16.9265 75.5206 17.208 76.0013 17.208C76.668 17.208 77.2084 16.6677 77.2084 16.0009V13.3432C77.2091 13.3423 77.2091 13.3415 77.2091 13.3407Z" fill="#1598FB"/>
</g>
<defs>
<clipPath id="clip0">
<rect width="80" height="80" fill="white"/>
</clipPath>
</defs>
</svg>
