<svg width="512" height="512" viewBox="0 0 512 512" fill="none" xmlns="http://www.w3.org/2000/svg">
<path fill-rule="evenodd" clip-rule="evenodd" d="M246.5 23.5C210.177 34.027 195.344 58.027 202 95.5C209.743 116.743 224.576 130.077 246.5 135.5C220.167 135.5 193.833 135.5 167.5 135.5C167.5 98.1667 167.5 60.8333 167.5 23.5C193.833 23.5 220.167 23.5 246.5 23.5Z" fill="#FBD939"/>
<path fill-rule="evenodd" clip-rule="evenodd" d="M246.5 23.5C251.5 23.5 256.5 23.5 261.5 23.5C297.982 31.5049 314.148 54.1716 310 91.5C303.212 116.624 287.046 131.291 261.5 135.5C256.5 135.5 251.5 135.5 246.5 135.5C224.576 130.077 209.743 116.743 202 95.5C195.344 58.027 210.177 34.027 246.5 23.5Z" fill="white"/>
<path fill-rule="evenodd" clip-rule="evenodd" d="M261.5 23.5C288.833 23.5 316.167 23.5 343.5 23.5C343.5 60.8333 343.5 98.1667 343.5 135.5C316.167 135.5 288.833 135.5 261.5 135.5C287.046 131.291 303.212 116.624 310 91.5C314.148 54.1716 297.982 31.5049 261.5 23.5Z" fill="#FBD939"/>
<path fill-rule="evenodd" clip-rule="evenodd" d="M239.5 47.5C250.167 47.5 260.833 47.5 271.5 47.5C271.5 52.8333 271.5 58.1667 271.5 63.5C276.833 63.5 282.167 63.5 287.5 63.5C287.5 74.1667 287.5 84.8333 287.5 95.5C282.167 95.5 276.833 95.5 271.5 95.5C271.5 100.833 271.5 106.167 271.5 111.5C260.833 111.5 250.167 111.5 239.5 111.5C239.5 106.167 239.5 100.833 239.5 95.5C234.167 95.5 228.833 95.5 223.5 95.5C223.5 84.8333 223.5 74.1667 223.5 63.5C228.833 63.5 234.167 63.5 239.5 63.5C239.5 58.1667 239.5 52.8333 239.5 47.5Z" fill="#E34B4C"/>
<path opacity="0.996" fill-rule="evenodd" clip-rule="evenodd" d="M167.5 135.5C193.833 135.5 220.167 135.5 246.5 135.5C251.5 135.5 256.5 135.5 261.5 135.5C288.833 135.5 316.167 135.5 343.5 135.5C353.506 135.334 363.506 135.5 373.5 136C380.487 138.807 383.82 143.973 383.5 151.5C383.82 159.027 380.487 164.193 373.5 167C368.845 167.499 364.179 167.666 359.5 167.5C290.167 167.5 220.833 167.5 151.5 167.5C131.22 169.401 124.054 160.734 130 141.5C131.938 138.894 134.438 137.061 137.5 136C147.494 135.5 157.494 135.334 167.5 135.5Z" fill="#3667C3"/>
<path fill-rule="evenodd" clip-rule="evenodd" d="M151.5 167.5C220.833 167.5 290.167 167.5 359.5 167.5C359.5 186.167 359.5 204.833 359.5 223.5C359.5 234.167 359.5 244.833 359.5 255.5C359.5 266.167 359.5 276.833 359.5 287.5C359.5 300.833 359.5 314.167 359.5 327.5C359.5 332.833 359.5 338.167 359.5 343.5C359.5 351.5 359.5 359.5 359.5 367.5C348.833 367.5 338.167 367.5 327.5 367.5C327.5 356.833 327.5 346.167 327.5 335.5C327.5 330.167 327.5 324.833 327.5 319.5C327.5 311.5 327.5 303.5 327.5 295.5C327.5 290.167 327.5 284.833 327.5 279.5C327.5 271.5 327.5 263.5 327.5 255.5C327.5 250.167 327.5 244.833 327.5 239.5C327.5 228.833 327.5 218.167 327.5 207.5C306.167 207.5 284.833 207.5 263.5 207.5C258.167 207.5 252.833 207.5 247.5 207.5C226.167 207.5 204.833 207.5 183.5 207.5C183.5 218.167 183.5 228.833 183.5 239.5C183.5 244.833 183.5 250.167 183.5 255.5C183.5 263.5 183.5 271.5 183.5 279.5C183.5 284.833 183.5 290.167 183.5 295.5C183.5 303.5 183.5 311.5 183.5 319.5C183.5 324.833 183.5 330.167 183.5 335.5C183.5 346.167 183.5 356.833 183.5 367.5C172.833 367.5 162.167 367.5 151.5 367.5C151.5 359.5 151.5 351.5 151.5 343.5C151.5 338.167 151.5 332.833 151.5 327.5C151.5 314.167 151.5 300.833 151.5 287.5C151.5 276.833 151.5 266.167 151.5 255.5C151.5 244.833 151.5 234.167 151.5 223.5C151.5 204.833 151.5 186.167 151.5 167.5Z" fill="#1C99F9"/>
<path fill-rule="evenodd" clip-rule="evenodd" d="M247.5 207.5C247.5 218.167 247.5 228.833 247.5 239.5C226.167 239.5 204.833 239.5 183.5 239.5C183.5 228.833 183.5 218.167 183.5 207.5C204.833 207.5 226.167 207.5 247.5 207.5Z" fill="#EDF6FF"/>
<path fill-rule="evenodd" clip-rule="evenodd" d="M247.5 207.5C252.833 207.5 258.167 207.5 263.5 207.5C263.5 218.167 263.5 228.833 263.5 239.5C284.833 239.5 306.167 239.5 327.5 239.5C327.5 244.833 327.5 250.167 327.5 255.5C306.167 255.5 284.833 255.5 263.5 255.5C263.5 263.5 263.5 271.5 263.5 279.5C284.833 279.5 306.167 279.5 327.5 279.5C327.5 284.833 327.5 290.167 327.5 295.5C306.167 295.5 284.833 295.5 263.5 295.5C263.5 303.5 263.5 311.5 263.5 319.5C284.833 319.5 306.167 319.5 327.5 319.5C327.5 324.833 327.5 330.167 327.5 335.5C306.167 335.5 284.833 335.5 263.5 335.5C263.5 346.167 263.5 356.833 263.5 367.5C258.167 367.5 252.833 367.5 247.5 367.5C247.5 356.833 247.5 346.167 247.5 335.5C226.167 335.5 204.833 335.5 183.5 335.5C183.5 330.167 183.5 324.833 183.5 319.5C204.833 319.5 226.167 319.5 247.5 319.5C247.5 311.5 247.5 303.5 247.5 295.5C226.167 295.5 204.833 295.5 183.5 295.5C183.5 290.167 183.5 284.833 183.5 279.5C204.833 279.5 226.167 279.5 247.5 279.5C247.5 271.5 247.5 263.5 247.5 255.5C226.167 255.5 204.833 255.5 183.5 255.5C183.5 250.167 183.5 244.833 183.5 239.5C204.833 239.5 226.167 239.5 247.5 239.5C247.5 228.833 247.5 218.167 247.5 207.5Z" fill="#3667C3"/>
<path fill-rule="evenodd" clip-rule="evenodd" d="M247.5 207.5C252.833 207.5 258.167 207.5 263.5 207.5C263.5 218.167 263.5 228.833 263.5 239.5C284.833 239.5 306.167 239.5 327.5 239.5C327.5 244.833 327.5 250.167 327.5 255.5C306.167 255.5 284.833 255.5 263.5 255.5C263.5 263.5 263.5 271.5 263.5 279.5C284.833 279.5 306.167 279.5 327.5 279.5C327.5 284.833 327.5 290.167 327.5 295.5C306.167 295.5 284.833 295.5 263.5 295.5C263.5 303.5 263.5 311.5 263.5 319.5C284.833 319.5 306.167 319.5 327.5 319.5C327.5 324.833 327.5 330.167 327.5 335.5C306.167 335.5 284.833 335.5 263.5 335.5C263.5 346.167 263.5 356.833 263.5 367.5C258.167 367.5 252.833 367.5 247.5 367.5C247.5 356.833 247.5 346.167 247.5 335.5C226.167 335.5 204.833 335.5 183.5 335.5C183.5 330.167 183.5 324.833 183.5 319.5C204.833 319.5 226.167 319.5 247.5 319.5C247.5 311.5 247.5 303.5 247.5 295.5C226.167 295.5 204.833 295.5 183.5 295.5C183.5 290.167 183.5 284.833 183.5 279.5C204.833 279.5 226.167 279.5 247.5 279.5C247.5 271.5 247.5 263.5 247.5 255.5C226.167 255.5 204.833 255.5 183.5 255.5C183.5 250.167 183.5 244.833 183.5 239.5C204.833 239.5 226.167 239.5 247.5 239.5C247.5 228.833 247.5 218.167 247.5 207.5Z" fill="white" fill-opacity="0.05"/>
<path fill-rule="evenodd" clip-rule="evenodd" d="M263.5 207.5C284.833 207.5 306.167 207.5 327.5 207.5C327.5 218.167 327.5 228.833 327.5 239.5C306.167 239.5 284.833 239.5 263.5 239.5C263.5 228.833 263.5 218.167 263.5 207.5Z" fill="#EDF6FF"/>
<path opacity="0.997" fill-rule="evenodd" clip-rule="evenodd" d="M151.5 223.5C151.5 234.167 151.5 244.833 151.5 255.5C114.167 255.5 76.8333 255.5 39.4999 255.5C26.2779 254.101 21.1112 246.767 23.9999 233.5C25.8332 229 28.9999 225.833 33.4999 224C72.8318 223.5 112.165 223.333 151.5 223.5Z" fill="#3667C3"/>
<path opacity="0.997" fill-rule="evenodd" clip-rule="evenodd" d="M359.5 223.5C398.835 223.333 438.168 223.5 477.5 224C486.482 228.473 489.649 235.64 487 245.5C484.186 252.49 479.019 255.823 471.5 255.5C434.167 255.5 396.833 255.5 359.5 255.5C359.5 244.833 359.5 234.167 359.5 223.5Z" fill="#3667C3"/>
<path fill-rule="evenodd" clip-rule="evenodd" d="M39.5 255.5C76.8333 255.5 114.167 255.5 151.5 255.5C151.5 266.167 151.5 276.833 151.5 287.5C140.833 287.5 130.167 287.5 119.5 287.5C114.167 287.5 108.833 287.5 103.5 287.5C92.8333 287.5 82.1667 287.5 71.5 287.5C71.5 300.833 71.5 314.167 71.5 327.5C71.5 332.833 71.5 338.167 71.5 343.5C71.5 354.167 71.5 364.833 71.5 375.5C71.5 380.833 71.5 386.167 71.5 391.5C71.5 404.833 71.5 418.167 71.5 431.5C82.1667 431.5 92.8333 431.5 103.5 431.5C108.833 431.5 114.167 431.5 119.5 431.5C127.5 431.5 135.5 431.5 143.5 431.5C143.5 447.5 143.5 463.5 143.5 479.5C108.833 479.5 74.1667 479.5 39.5 479.5C39.5 404.833 39.5 330.167 39.5 255.5Z" fill="#1C99F9"/>
<path fill-rule="evenodd" clip-rule="evenodd" d="M183.5 255.5C204.833 255.5 226.167 255.5 247.5 255.5C247.5 263.5 247.5 271.5 247.5 279.5C226.167 279.5 204.833 279.5 183.5 279.5C183.5 271.5 183.5 263.5 183.5 255.5Z" fill="#EDF6FF"/>
<path fill-rule="evenodd" clip-rule="evenodd" d="M327.5 255.5C327.5 263.5 327.5 271.5 327.5 279.5C306.167 279.5 284.833 279.5 263.5 279.5C263.5 271.5 263.5 263.5 263.5 255.5C284.833 255.5 306.167 255.5 327.5 255.5Z" fill="#EDF6FF"/>
<path fill-rule="evenodd" clip-rule="evenodd" d="M359.5 255.5C396.833 255.5 434.167 255.5 471.5 255.5C471.5 330.167 471.5 404.833 471.5 479.5C436.833 479.5 402.167 479.5 367.5 479.5C367.5 463.5 367.5 447.5 367.5 431.5C375.5 431.5 383.5 431.5 391.5 431.5C396.833 431.5 402.167 431.5 407.5 431.5C418.167 431.5 428.833 431.5 439.5 431.5C439.5 418.167 439.5 404.833 439.5 391.5C439.5 386.167 439.5 380.833 439.5 375.5C439.5 364.833 439.5 354.167 439.5 343.5C439.5 338.167 439.5 332.833 439.5 327.5C439.5 314.167 439.5 300.833 439.5 287.5C428.833 287.5 418.167 287.5 407.5 287.5C402.167 287.5 396.833 287.5 391.5 287.5C380.833 287.5 370.167 287.5 359.5 287.5C359.5 276.833 359.5 266.167 359.5 255.5Z" fill="#1C99F9"/>
<path fill-rule="evenodd" clip-rule="evenodd" d="M103.5 287.5C103.5 300.833 103.5 314.167 103.5 327.5C92.8333 327.5 82.1667 327.5 71.5 327.5C71.5 314.167 71.5 300.833 71.5 287.5C82.1667 287.5 92.8333 287.5 103.5 287.5Z" fill="#EDF6FF"/>
<path fill-rule="evenodd" clip-rule="evenodd" d="M103.5 287.5C108.833 287.5 114.167 287.5 119.5 287.5C119.5 300.833 119.5 314.167 119.5 327.5C130.167 327.5 140.833 327.5 151.5 327.5C151.5 332.833 151.5 338.167 151.5 343.5C140.833 343.5 130.167 343.5 119.5 343.5C119.5 354.167 119.5 364.833 119.5 375.5C122.833 375.5 126.167 375.5 129.5 375.5C126.924 380.816 126.924 386.149 129.5 391.5C126.167 391.5 122.833 391.5 119.5 391.5C119.5 404.833 119.5 418.167 119.5 431.5C114.167 431.5 108.833 431.5 103.5 431.5C103.5 418.167 103.5 404.833 103.5 391.5C92.8333 391.5 82.1667 391.5 71.5 391.5C71.5 386.167 71.5 380.833 71.5 375.5C82.1667 375.5 92.8333 375.5 103.5 375.5C103.5 364.833 103.5 354.167 103.5 343.5C92.8333 343.5 82.1667 343.5 71.5 343.5C71.5 338.167 71.5 332.833 71.5 327.5C82.1667 327.5 92.8333 327.5 103.5 327.5C103.5 314.167 103.5 300.833 103.5 287.5Z" fill="#3667C3"/>
<path fill-rule="evenodd" clip-rule="evenodd" d="M103.5 287.5C108.833 287.5 114.167 287.5 119.5 287.5C119.5 300.833 119.5 314.167 119.5 327.5C130.167 327.5 140.833 327.5 151.5 327.5C151.5 332.833 151.5 338.167 151.5 343.5C140.833 343.5 130.167 343.5 119.5 343.5C119.5 354.167 119.5 364.833 119.5 375.5C122.833 375.5 126.167 375.5 129.5 375.5C126.924 380.816 126.924 386.149 129.5 391.5C126.167 391.5 122.833 391.5 119.5 391.5C119.5 404.833 119.5 418.167 119.5 431.5C114.167 431.5 108.833 431.5 103.5 431.5C103.5 418.167 103.5 404.833 103.5 391.5C92.8333 391.5 82.1667 391.5 71.5 391.5C71.5 386.167 71.5 380.833 71.5 375.5C82.1667 375.5 92.8333 375.5 103.5 375.5C103.5 364.833 103.5 354.167 103.5 343.5C92.8333 343.5 82.1667 343.5 71.5 343.5C71.5 338.167 71.5 332.833 71.5 327.5C82.1667 327.5 92.8333 327.5 103.5 327.5C103.5 314.167 103.5 300.833 103.5 287.5Z" fill="white" fill-opacity="0.05"/>
<path fill-rule="evenodd" clip-rule="evenodd" d="M119.5 287.5C130.167 287.5 140.833 287.5 151.5 287.5C151.5 300.833 151.5 314.167 151.5 327.5C140.833 327.5 130.167 327.5 119.5 327.5C119.5 314.167 119.5 300.833 119.5 287.5Z" fill="#EDF6FF"/>
<path fill-rule="evenodd" clip-rule="evenodd" d="M359.5 287.5C370.167 287.5 380.833 287.5 391.5 287.5C391.5 300.833 391.5 314.167 391.5 327.5C380.833 327.5 370.167 327.5 359.5 327.5C359.5 314.167 359.5 300.833 359.5 287.5Z" fill="#EDF6FF"/>
<path fill-rule="evenodd" clip-rule="evenodd" d="M391.5 287.5C396.833 287.5 402.167 287.5 407.5 287.5C407.5 300.833 407.5 314.167 407.5 327.5C418.167 327.5 428.833 327.5 439.5 327.5C439.5 332.833 439.5 338.167 439.5 343.5C428.833 343.5 418.167 343.5 407.5 343.5C407.5 354.167 407.5 364.833 407.5 375.5C418.167 375.5 428.833 375.5 439.5 375.5C439.5 380.833 439.5 386.167 439.5 391.5C428.833 391.5 418.167 391.5 407.5 391.5C407.5 404.833 407.5 418.167 407.5 431.5C402.167 431.5 396.833 431.5 391.5 431.5C391.5 418.167 391.5 404.833 391.5 391.5C388.167 391.5 384.833 391.5 381.5 391.5C384.076 386.184 384.076 380.851 381.5 375.5C384.833 375.5 388.167 375.5 391.5 375.5C391.5 364.833 391.5 354.167 391.5 343.5C380.833 343.5 370.167 343.5 359.5 343.5C359.5 338.167 359.5 332.833 359.5 327.5C370.167 327.5 380.833 327.5 391.5 327.5C391.5 314.167 391.5 300.833 391.5 287.5Z" fill="#3667C3"/>
<path fill-rule="evenodd" clip-rule="evenodd" d="M391.5 287.5C396.833 287.5 402.167 287.5 407.5 287.5C407.5 300.833 407.5 314.167 407.5 327.5C418.167 327.5 428.833 327.5 439.5 327.5C439.5 332.833 439.5 338.167 439.5 343.5C428.833 343.5 418.167 343.5 407.5 343.5C407.5 354.167 407.5 364.833 407.5 375.5C418.167 375.5 428.833 375.5 439.5 375.5C439.5 380.833 439.5 386.167 439.5 391.5C428.833 391.5 418.167 391.5 407.5 391.5C407.5 404.833 407.5 418.167 407.5 431.5C402.167 431.5 396.833 431.5 391.5 431.5C391.5 418.167 391.5 404.833 391.5 391.5C388.167 391.5 384.833 391.5 381.5 391.5C384.076 386.184 384.076 380.851 381.5 375.5C384.833 375.5 388.167 375.5 391.5 375.5C391.5 364.833 391.5 354.167 391.5 343.5C380.833 343.5 370.167 343.5 359.5 343.5C359.5 338.167 359.5 332.833 359.5 327.5C370.167 327.5 380.833 327.5 391.5 327.5C391.5 314.167 391.5 300.833 391.5 287.5Z" fill="white" fill-opacity="0.05"/>
<path fill-rule="evenodd" clip-rule="evenodd" d="M407.5 287.5C418.167 287.5 428.833 287.5 439.5 287.5C439.5 300.833 439.5 314.167 439.5 327.5C428.833 327.5 418.167 327.5 407.5 327.5C407.5 314.167 407.5 300.833 407.5 287.5Z" fill="#EDF6FF"/>
<path fill-rule="evenodd" clip-rule="evenodd" d="M183.5 295.5C204.833 295.5 226.167 295.5 247.5 295.5C247.5 303.5 247.5 311.5 247.5 319.5C226.167 319.5 204.833 319.5 183.5 319.5C183.5 311.5 183.5 303.5 183.5 295.5Z" fill="#EDF6FF"/>
<path fill-rule="evenodd" clip-rule="evenodd" d="M327.5 295.5C327.5 303.5 327.5 311.5 327.5 319.5C306.167 319.5 284.833 319.5 263.5 319.5C263.5 311.5 263.5 303.5 263.5 295.5C284.833 295.5 306.167 295.5 327.5 295.5Z" fill="#EDF6FF"/>
<path fill-rule="evenodd" clip-rule="evenodd" d="M183.5 335.5C204.833 335.5 226.167 335.5 247.5 335.5C247.5 346.167 247.5 356.833 247.5 367.5C226.167 367.5 204.833 367.5 183.5 367.5C183.5 356.833 183.5 346.167 183.5 335.5Z" fill="#EDF6FF"/>
<path fill-rule="evenodd" clip-rule="evenodd" d="M327.5 335.5C327.5 346.167 327.5 356.833 327.5 367.5C306.167 367.5 284.833 367.5 263.5 367.5C263.5 356.833 263.5 346.167 263.5 335.5C284.833 335.5 306.167 335.5 327.5 335.5Z" fill="#EDF6FF"/>
<path fill-rule="evenodd" clip-rule="evenodd" d="M71.5 343.5C82.1667 343.5 92.8333 343.5 103.5 343.5C103.5 354.167 103.5 364.833 103.5 375.5C92.8333 375.5 82.1667 375.5 71.5 375.5C71.5 364.833 71.5 354.167 71.5 343.5Z" fill="#EDF6FF"/>
<path fill-rule="evenodd" clip-rule="evenodd" d="M151.5 343.5C151.5 351.5 151.5 359.5 151.5 367.5C142.269 365.406 134.936 368.073 129.5 375.5C126.167 375.5 122.833 375.5 119.5 375.5C119.5 364.833 119.5 354.167 119.5 343.5C130.167 343.5 140.833 343.5 151.5 343.5Z" fill="#EDF6FF"/>
<path fill-rule="evenodd" clip-rule="evenodd" d="M359.5 343.5C370.167 343.5 380.833 343.5 391.5 343.5C391.5 354.167 391.5 364.833 391.5 375.5C388.167 375.5 384.833 375.5 381.5 375.5C379.664 372.832 377.331 370.666 374.5 369C369.58 367.75 364.58 367.25 359.5 367.5C359.5 359.5 359.5 351.5 359.5 343.5Z" fill="#EDF6FF"/>
<path fill-rule="evenodd" clip-rule="evenodd" d="M439.5 343.5C439.5 354.167 439.5 364.833 439.5 375.5C428.833 375.5 418.167 375.5 407.5 375.5C407.5 364.833 407.5 354.167 407.5 343.5C418.167 343.5 428.833 343.5 439.5 343.5Z" fill="#EDF6FF"/>
<path fill-rule="evenodd" clip-rule="evenodd" d="M151.5 367.5C162.167 367.5 172.833 367.5 183.5 367.5C204.833 367.5 226.167 367.5 247.5 367.5C252.833 367.5 258.167 367.5 263.5 367.5C284.833 367.5 306.167 367.5 327.5 367.5C338.167 367.5 348.833 367.5 359.5 367.5C364.58 367.25 369.58 367.75 374.5 369C377.331 370.666 379.664 372.832 381.5 375.5C384.076 380.851 384.076 386.184 381.5 391.5C378.072 396.247 373.405 398.914 367.5 399.5C356.833 399.5 346.167 399.5 335.5 399.5C311.5 399.5 287.5 399.5 263.5 399.5C258.167 399.5 252.833 399.5 247.5 399.5C223.5 399.5 199.5 399.5 175.5 399.5C164.833 399.5 154.167 399.5 143.5 399.5C137.34 399.421 132.673 396.754 129.5 391.5C126.924 386.149 126.924 380.816 129.5 375.5C134.936 368.073 142.269 365.406 151.5 367.5Z" fill="#3667C3"/>
<path fill-rule="evenodd" clip-rule="evenodd" d="M151.5 367.5C162.167 367.5 172.833 367.5 183.5 367.5C204.833 367.5 226.167 367.5 247.5 367.5C252.833 367.5 258.167 367.5 263.5 367.5C284.833 367.5 306.167 367.5 327.5 367.5C338.167 367.5 348.833 367.5 359.5 367.5C364.58 367.25 369.58 367.75 374.5 369C377.331 370.666 379.664 372.832 381.5 375.5C384.076 380.851 384.076 386.184 381.5 391.5C378.072 396.247 373.405 398.914 367.5 399.5C356.833 399.5 346.167 399.5 335.5 399.5C311.5 399.5 287.5 399.5 263.5 399.5C258.167 399.5 252.833 399.5 247.5 399.5C223.5 399.5 199.5 399.5 175.5 399.5C164.833 399.5 154.167 399.5 143.5 399.5C137.34 399.421 132.673 396.754 129.5 391.5C126.924 386.149 126.924 380.816 129.5 375.5C134.936 368.073 142.269 365.406 151.5 367.5Z" fill="black" fill-opacity="0.1"/>
<path fill-rule="evenodd" clip-rule="evenodd" d="M71.5 391.5C82.1667 391.5 92.8333 391.5 103.5 391.5C103.5 404.833 103.5 418.167 103.5 431.5C92.8333 431.5 82.1667 431.5 71.5 431.5C71.5 418.167 71.5 404.833 71.5 391.5Z" fill="#EDF6FF"/>
<path fill-rule="evenodd" clip-rule="evenodd" d="M129.5 391.5C132.673 396.754 137.34 399.421 143.5 399.5C143.5 410.167 143.5 420.833 143.5 431.5C135.5 431.5 127.5 431.5 119.5 431.5C119.5 418.167 119.5 404.833 119.5 391.5C122.833 391.5 126.167 391.5 129.5 391.5Z" fill="#EDF6FF"/>
<path fill-rule="evenodd" clip-rule="evenodd" d="M381.5 391.5C384.833 391.5 388.167 391.5 391.5 391.5C391.5 404.833 391.5 418.167 391.5 431.5C383.5 431.5 375.5 431.5 367.5 431.5C367.5 420.833 367.5 410.167 367.5 399.5C373.405 398.914 378.072 396.247 381.5 391.5Z" fill="#EDF6FF"/>
<path fill-rule="evenodd" clip-rule="evenodd" d="M439.5 391.5C439.5 404.833 439.5 418.167 439.5 431.5C428.833 431.5 418.167 431.5 407.5 431.5C407.5 418.167 407.5 404.833 407.5 391.5C418.167 391.5 428.833 391.5 439.5 391.5Z" fill="#EDF6FF"/>
<path fill-rule="evenodd" clip-rule="evenodd" d="M143.5 399.5C154.167 399.5 164.833 399.5 175.5 399.5C175.5 426.167 175.5 452.833 175.5 479.5C164.833 479.5 154.167 479.5 143.5 479.5C143.5 463.5 143.5 447.5 143.5 431.5C143.5 420.833 143.5 410.167 143.5 399.5Z" fill="#3667C3"/>
<path fill-rule="evenodd" clip-rule="evenodd" d="M143.5 399.5C154.167 399.5 164.833 399.5 175.5 399.5C175.5 426.167 175.5 452.833 175.5 479.5C164.833 479.5 154.167 479.5 143.5 479.5C143.5 463.5 143.5 447.5 143.5 431.5C143.5 420.833 143.5 410.167 143.5 399.5Z" fill="black" fill-opacity="0.2"/>
<path fill-rule="evenodd" clip-rule="evenodd" d="M175.5 399.5C199.5 399.5 223.5 399.5 247.5 399.5C247.5 426.167 247.5 452.833 247.5 479.5C223.5 479.5 199.5 479.5 175.5 479.5C175.5 452.833 175.5 426.167 175.5 399.5Z" fill="white"/>
<path fill-rule="evenodd" clip-rule="evenodd" d="M247.5 399.5C252.833 399.5 258.167 399.5 263.5 399.5C263.5 426.167 263.5 452.833 263.5 479.5C258.167 479.5 252.833 479.5 247.5 479.5C247.5 452.833 247.5 426.167 247.5 399.5Z" fill="#3667C3"/>
<path fill-rule="evenodd" clip-rule="evenodd" d="M247.5 399.5C252.833 399.5 258.167 399.5 263.5 399.5C263.5 426.167 263.5 452.833 263.5 479.5C258.167 479.5 252.833 479.5 247.5 479.5C247.5 452.833 247.5 426.167 247.5 399.5Z" fill="white" fill-opacity="0.05"/>
<path fill-rule="evenodd" clip-rule="evenodd" d="M263.5 399.5C287.5 399.5 311.5 399.5 335.5 399.5C335.5 426.167 335.5 452.833 335.5 479.5C311.5 479.5 287.5 479.5 263.5 479.5C263.5 452.833 263.5 426.167 263.5 399.5Z" fill="white"/>
<path fill-rule="evenodd" clip-rule="evenodd" d="M335.5 399.5C346.167 399.5 356.833 399.5 367.5 399.5C367.5 410.167 367.5 420.833 367.5 431.5C367.5 447.5 367.5 463.5 367.5 479.5C356.833 479.5 346.167 479.5 335.5 479.5C335.5 452.833 335.5 426.167 335.5 399.5Z" fill="#3667C3"/>
<path fill-rule="evenodd" clip-rule="evenodd" d="M335.5 399.5C346.167 399.5 356.833 399.5 367.5 399.5C367.5 410.167 367.5 420.833 367.5 431.5C367.5 447.5 367.5 463.5 367.5 479.5C356.833 479.5 346.167 479.5 335.5 479.5C335.5 452.833 335.5 426.167 335.5 399.5Z" fill="black" fill-opacity="0.2"/>
<path fill-rule="evenodd" clip-rule="evenodd" d="M223.5 431.5C228.833 431.5 234.167 431.5 239.5 431.5C239.5 439.5 239.5 447.5 239.5 455.5C234.167 455.5 228.833 455.5 223.5 455.5C223.5 447.5 223.5 439.5 223.5 431.5Z" fill="#395166"/>
<path fill-rule="evenodd" clip-rule="evenodd" d="M271.5 431.5C276.833 431.5 282.167 431.5 287.5 431.5C287.5 439.5 287.5 447.5 287.5 455.5C282.167 455.5 276.833 455.5 271.5 455.5C271.5 447.5 271.5 439.5 271.5 431.5Z" fill="#395166"/>
<path fill-rule="evenodd" clip-rule="evenodd" d="M39.5 479.5C74.1667 479.5 108.833 479.5 143.5 479.5C154.167 479.5 164.833 479.5 175.5 479.5C199.5 479.5 223.5 479.5 247.5 479.5C252.833 479.5 258.167 479.5 263.5 479.5C287.5 479.5 311.5 479.5 335.5 479.5C346.167 479.5 356.833 479.5 367.5 479.5C402.167 479.5 436.833 479.5 471.5 479.5C479.5 479.5 487.5 479.5 495.5 479.5C495.5 484.833 495.5 490.167 495.5 495.5C335.5 495.5 175.5 495.5 15.5 495.5C15.5 490.167 15.5 484.833 15.5 479.5C23.5 479.5 31.5 479.5 39.5 479.5Z" fill="#395166"/>
</svg>
