<svg width="20" height="20" viewBox="0 0 20 20" fill="none" xmlns="http://www.w3.org/2000/svg">
<path d="M14.3203 14.2441H15.4922V17.2441H14.3203V14.2441Z" fill="white"/>
<path d="M14.9067 13.4668C15.2132 13.4668 15.5069 13.1973 15.4927 12.8809C15.4785 12.5634 15.2352 12.2949 14.9067 12.2949C14.6003 12.2949 14.3066 12.5644 14.3208 12.8809C14.335 13.1983 14.5783 13.4668 14.9067 13.4668Z" fill="white"/>
<path d="M15.9413 9.96719V0H2.5752C1.15523 0 0 1.12125 0 2.54121V17.5006H0.0123828C0.142539 18.9004 1.32324 20 2.75645 20H14.9145C17.7186 20 20 17.7526 20 14.9485C20 12.496 18.2549 10.4434 15.9413 9.96719ZM14.7676 9.86523C12.1856 9.93887 10.0797 11.9464 9.85012 14.4871H4.71273V1.13973H14.7676V9.86523ZM2.5752 1.13973H3.53898V14.4871H2.75645C2.16773 14.4871 1.62199 14.6732 1.17371 14.9888V2.54121C1.17371 1.7684 1.80242 1.13973 2.5752 1.13973ZM2.75645 18.8263C1.88371 18.8263 1.17371 18.1162 1.17371 17.2436C1.17371 16.3708 1.88371 15.6608 2.75645 15.6608H9.87906C9.92789 16.0075 10.0117 16.3432 10.127 16.6639H2.9743V17.8377H10.7318C10.9865 18.2052 11.2882 18.5377 11.6284 18.8263H2.75645V18.8263ZM14.9145 18.8603C12.7575 18.8603 11.0027 17.1054 11.0027 14.9485C11.0027 12.7915 12.7575 11.0367 14.9145 11.0367C17.0715 11.0367 18.8263 12.7915 18.8263 14.9485C18.8263 17.1054 17.0714 18.8603 14.9145 18.8603Z" fill="white"/>
<path d="M7.84375 3.41992H11.7719V4.59363H7.84375V3.41992Z" fill="white"/>
<path d="M6.51562 5.96875H13.0975V7.14246H6.51562V5.96875Z" fill="white"/>
</svg>
