<svg width="30" height="30" viewBox="0 0 30 30" fill="none" xmlns="http://www.w3.org/2000/svg">
<path d="M16.7593 3.56641C16.0839 3.56641 15.4671 3.82141 15 4.24029C14.5329 3.82146 13.916 3.56641 13.2407 3.56641H0V26.4359H30V3.56641H16.7593ZM14.121 24.678H1.75787V22.9173H13.2407C13.7261 22.9173 14.121 23.3123 14.121 23.7977V24.678ZM14.121 21.3111C13.8455 21.2133 13.5494 21.1594 13.2407 21.1594H1.75787V5.32428H13.2407C13.7261 5.32428 14.121 5.7192 14.121 6.20465V21.3111ZM28.2421 24.678H15.879V23.7977C15.879 23.3123 16.2739 22.9173 16.7593 22.9173H28.2421V24.678ZM28.2421 21.1594H16.7593C16.4506 21.1594 16.1545 21.2132 15.8789 21.3111V6.20465C15.8789 5.71926 16.2738 5.32428 16.7593 5.32428H28.2421V21.1594H28.2421Z" fill="#828282"/>
<path d="M22.9397 16.1753V12.0703H19.4219V13.8282H21.1819V16.1753H19.4219V17.9332H24.6998V16.1753H22.9397Z" fill="#828282"/>
<path d="M22.9387 8.55078H21.1797V10.3087H22.9387V8.55078Z" fill="#828282"/>
<path d="M12.3613 7.08203H3.51562V8.8399H12.3613V7.08203Z" fill="#828282"/>
<path d="M12.3613 10.6016H3.51562V12.3594H12.3613V10.6016Z" fill="#828282"/>
<path d="M12.3613 14.1211H3.51562V15.879H12.3613V14.1211Z" fill="#828282"/>
<path d="M12.3613 17.6406H3.51562V19.3985H12.3613V17.6406Z" fill="#828282"/>
</svg>
