<svg width="24" height="26" viewBox="0 0 24 26" fill="none" xmlns="http://www.w3.org/2000/svg">
<path d="M3.25391 25.5003H20.7539C22.1327 25.5003 23.2539 24.379 23.2539 23.0003V11.7503C23.2541 11.5861 23.2218 11.4235 23.159 11.2718C23.0961 11.1202 23.0039 10.9824 22.8877 10.8665L12.8877 0.866501C12.7717 0.750319 12.6339 0.658147 12.4823 0.595259C12.3306 0.53237 12.1681 0.5 12.0039 0.5C11.8397 0.5 11.6772 0.53237 11.5255 0.595259C11.3739 0.658147 11.2361 0.750319 11.1202 0.866501L1.12016 10.8665C1.00391 10.9824 0.911711 11.1202 0.848858 11.2718C0.786006 11.4235 0.753737 11.5861 0.753907 11.7503V23.0003C0.753907 24.379 1.87516 25.5003 3.25391 25.5003ZM9.50391 23.0003V16.7503H14.5039V23.0003H9.50391ZM3.25391 12.2678L12.0039 3.51775L20.7539 12.2678L20.7552 23.0003H17.0039V16.7503C17.0039 15.3715 15.8827 14.2503 14.5039 14.2503H9.50391C8.12516 14.2503 7.00391 15.3715 7.00391 16.7503V23.0003H3.25391V12.2678Z" fill="#828282"/>
</svg>
