<svg width="30" height="30" viewBox="0 0 30 30" fill="none" xmlns="http://www.w3.org/2000/svg">
<g clip-path="url(#clip0)">
<path d="M24.3793 0H20.8153H2.64844V30H20.8153H24.3793C26.0197 30 27.3543 28.6679 27.3543 27.0305V2.96953C27.3543 1.33212 26.0197 0 24.3793 0V0ZM4.41314 28.2353V1.76471H20.8153C21.5017 1.76471 22.0602 2.30518 22.0602 2.96953V27.0304C22.0602 27.6948 21.5017 28.2352 20.8153 28.2352H4.41314V28.2353ZM25.5896 27.0305C25.5896 27.6948 25.0467 28.2353 24.3793 28.2353H23.565C23.7316 27.8668 23.8249 27.4593 23.8249 27.0305V2.96953C23.8249 2.54071 23.7316 2.13318 23.565 1.76471H24.3793C25.0467 1.76471 25.5896 2.30518 25.5896 2.96953V27.0305Z" fill="#828282"/>
<path d="M13.2385 3.53125C9.34628 3.53125 6.17969 6.69784 6.17969 10.5901C6.17969 14.4823 9.34628 17.6489 13.2385 17.6489C17.1307 17.6489 20.2973 14.4823 20.2973 10.5901C20.2973 6.69784 17.1307 3.53125 13.2385 3.53125ZM18.4587 9.70772H16.4506C16.3773 8.28913 16.1287 6.96896 15.7313 5.92072C17.1489 6.6806 18.1823 8.06725 18.4587 9.70772ZM13.2385 15.8842C13.1406 15.8842 12.7599 15.5901 12.3992 14.6434C12.0762 13.7954 11.8644 12.6725 11.794 11.4724H14.683C14.6126 12.6725 14.4007 13.7954 14.0778 14.6434C13.7171 15.5901 13.3364 15.8842 13.2385 15.8842ZM11.794 9.70772C11.8644 8.50766 12.0763 7.38472 12.3992 6.53678C12.7599 5.59001 13.1406 5.29596 13.2385 5.29596C13.3364 5.29596 13.7171 5.59001 14.0778 6.53678C14.4008 7.38472 14.6126 8.50766 14.683 9.70772H11.794ZM10.7457 5.92072C10.3483 6.96896 10.0997 8.28913 10.0265 9.70772H8.01833C8.29475 8.06725 9.3281 6.6806 10.7457 5.92072ZM8.01833 11.4724H10.0265C10.0997 12.891 10.3483 14.2112 10.7457 15.2594C9.3281 14.4995 8.29475 13.1129 8.01833 11.4724ZM15.7313 15.2594C16.1287 14.2112 16.3773 12.891 16.4506 11.4724H18.4587C18.1823 13.1129 17.1489 14.4995 15.7313 15.2594Z" fill="#828282"/>
<path d="M8.82422 20.293H17.6477V22.0577H8.82422V20.293Z" fill="#828282"/>
<path d="M10.5898 23.8242H15.884V25.5889H10.5898V23.8242Z" fill="#828282"/>
</g>
<defs>
<clipPath id="clip0">
<rect width="30" height="30" fill="white"/>
</clipPath>
</defs>
</svg>
