<svg width="80" height="80" viewBox="0 0 80 80" fill="none" xmlns="http://www.w3.org/2000/svg">
<path d="M8.11925 35.8H12.0713C13.3406 35.8 14.2899 36.0613 14.9193 36.584C15.5486 37.096 15.8633 37.8747 15.8633 38.92C15.8633 39.656 15.7086 40.2853 15.3993 40.808C15.0899 41.3307 14.6419 41.7093 14.0553 41.944V41.976C14.2579 42.1253 14.4126 42.2693 14.5193 42.408C14.6366 42.536 14.7326 42.6853 14.8073 42.856L16.4553 47H14.0073L12.7273 43.592C12.5993 43.2507 12.4339 43.0267 12.2313 42.92C12.0286 42.8027 11.6766 42.744 11.1753 42.744H10.4233V47H8.11925V35.8ZM11.8313 40.92C12.4179 40.92 12.8606 40.776 13.1593 40.488C13.4686 40.1893 13.6233 39.7573 13.6233 39.192C13.6233 38.1573 13.0153 37.64 11.7993 37.64H10.4233V40.92H11.8313ZM24.7385 43.752H19.1705C19.3412 44.8827 19.9972 45.448 21.1385 45.448C21.6078 45.448 22.0132 45.368 22.3545 45.208C22.7065 45.048 23.0478 44.7813 23.3785 44.408L24.4825 45.464C24.1732 45.976 23.7038 46.3867 23.0745 46.696C22.4558 47.0053 21.7732 47.16 21.0265 47.16C19.7785 47.16 18.8078 46.7973 18.1145 46.072C17.4212 45.336 17.0745 44.3227 17.0745 43.032C17.0745 41.7307 17.4212 40.7067 18.1145 39.96C18.8185 39.2133 19.7838 38.84 21.0105 38.84C22.1838 38.84 23.0958 39.208 23.7465 39.944C24.4078 40.68 24.7385 41.704 24.7385 43.016V43.752ZM22.7385 42.264C22.7385 41.72 22.5785 41.2933 22.2585 40.984C21.9492 40.664 21.5172 40.504 20.9625 40.504C20.4612 40.504 20.0558 40.6693 19.7465 41C19.4372 41.32 19.2398 41.7733 19.1545 42.36H22.7385V42.264ZM28.2424 47.16C27.5597 47.16 27.037 46.9787 26.6744 46.616C26.3224 46.2427 26.1464 45.7093 26.1464 45.016V35.128H28.1784V45.048C28.1784 45.2827 28.237 45.4587 28.3544 45.576C28.4824 45.6827 28.669 45.736 28.9144 45.736C29.1597 45.736 29.4637 45.6667 29.8264 45.528L30.1304 46.616C29.6504 46.9787 29.021 47.16 28.2424 47.16ZM32.2229 38.072C31.8282 38.072 31.5135 37.9653 31.2789 37.752C31.0442 37.528 30.9269 37.2347 30.9269 36.872C30.9269 36.5093 31.0442 36.2213 31.2789 36.008C31.5135 35.784 31.8282 35.672 32.2229 35.672C32.6175 35.672 32.9322 35.784 33.1669 36.008C33.4122 36.2213 33.5349 36.5093 33.5349 36.872C33.5349 37.2347 33.4175 37.528 33.1829 37.752C32.9482 37.9653 32.6282 38.072 32.2229 38.072ZM31.2149 39H33.2469V47H31.2149V39ZM42.5179 39V46.68C42.5179 48.0347 42.1819 49.0533 41.5099 49.736C40.8379 50.4293 39.8405 50.776 38.5179 50.776C37.8992 50.776 37.3125 50.7013 36.7579 50.552C36.2139 50.4027 35.7285 50.1893 35.3019 49.912L35.9899 48.52C36.3739 48.712 36.7792 48.8613 37.2059 48.968C37.6325 49.0853 38.0379 49.144 38.4219 49.144C39.1472 49.144 39.6859 48.9147 40.0379 48.456C40.3899 48.008 40.5659 47.3253 40.5659 46.408V46.152C40.3525 46.44 40.0592 46.664 39.6859 46.824C39.3125 46.9733 38.8699 47.048 38.3579 47.048C37.2485 47.048 36.3845 46.6853 35.7659 45.96C35.1579 45.2347 34.8539 44.2107 34.8539 42.888C34.8539 41.608 35.1472 40.616 35.7339 39.912C36.3205 39.1973 37.1472 38.84 38.2139 38.84C39.3232 38.84 40.1285 39.2293 40.6299 40.008H40.6619L40.8219 39H42.5179ZM40.4859 42.504C40.4859 41.8107 40.3365 41.2827 40.0379 40.92C39.7392 40.5467 39.3072 40.36 38.7419 40.36C38.1445 40.36 37.6859 40.584 37.3659 41.032C37.0459 41.4693 36.8859 42.104 36.8859 42.936C36.8859 43.768 37.0405 44.3973 37.3499 44.824C37.6699 45.2507 38.1339 45.464 38.7419 45.464C39.3072 45.464 39.7392 45.2987 40.0379 44.968C40.3365 44.6267 40.4859 44.1467 40.4859 43.528V42.504ZM45.4729 38.072C45.0782 38.072 44.7635 37.9653 44.5289 37.752C44.2942 37.528 44.1769 37.2347 44.1769 36.872C44.1769 36.5093 44.2942 36.2213 44.5289 36.008C44.7635 35.784 45.0782 35.672 45.4729 35.672C45.8675 35.672 46.1822 35.784 46.4169 36.008C46.6622 36.2213 46.7849 36.5093 46.7849 36.872C46.7849 37.2347 46.6675 37.528 46.4329 37.752C46.1982 37.9653 45.8782 38.072 45.4729 38.072ZM44.4649 39H46.4969V47H44.4649V39ZM52.2959 47.16C51.0052 47.16 49.9972 46.792 49.2719 46.056C48.5465 45.32 48.1839 44.3013 48.1839 43C48.1839 41.6987 48.5465 40.68 49.2719 39.944C49.9972 39.208 51.0052 38.84 52.2959 38.84C53.5865 38.84 54.5945 39.208 55.3199 39.944C56.0559 40.68 56.4239 41.6987 56.4239 43C56.4239 44.3013 56.0559 45.32 55.3199 46.056C54.5945 46.792 53.5865 47.16 52.2959 47.16ZM52.2959 45.64C52.9465 45.64 53.4585 45.4053 53.8319 44.936C54.2052 44.4667 54.3919 43.8213 54.3919 43C54.3919 42.1787 54.2052 41.5333 53.8319 41.064C53.4585 40.5947 52.9465 40.36 52.2959 40.36C51.6452 40.36 51.1332 40.5947 50.7599 41.064C50.3972 41.5333 50.2159 42.1787 50.2159 43C50.2159 43.8213 50.3972 44.4667 50.7599 44.936C51.1332 45.4053 51.6452 45.64 52.2959 45.64ZM60.5055 47.16C59.5882 47.16 58.8895 46.8507 58.4095 46.232C57.9402 45.6133 57.7055 44.7067 57.7055 43.512V39H59.7535V43.528C59.7535 44.2107 59.8655 44.712 60.0895 45.032C60.3135 45.352 60.6602 45.512 61.1295 45.512C61.6948 45.512 62.1588 45.2987 62.5215 44.872C62.8842 44.4347 63.0655 43.896 63.0655 43.256V39H65.1135V44.968C65.1135 45.512 65.1562 46.1893 65.2415 47H63.3055C63.2202 46.52 63.1722 46.0507 63.1615 45.592H63.1295C62.9375 46.072 62.6015 46.456 62.1215 46.744C61.6522 47.0213 61.1135 47.16 60.5055 47.16ZM69.2823 47.16C68.5889 47.16 67.9756 47.0213 67.4423 46.744C66.9196 46.4667 66.5516 46.0987 66.3383 45.64L67.6023 44.76C67.7943 45.0267 68.0396 45.24 68.3383 45.4C68.6369 45.56 68.9409 45.64 69.2503 45.64C69.6129 45.64 69.9116 45.5493 70.1463 45.368C70.3809 45.176 70.4983 44.9413 70.4983 44.664C70.4983 44.44 70.4129 44.264 70.2423 44.136C70.0716 43.9973 69.7089 43.8213 69.1543 43.608C68.1836 43.2347 67.5009 42.856 67.1063 42.472C66.7116 42.088 66.5143 41.6133 66.5143 41.048C66.5143 40.3867 66.7809 39.8533 67.3143 39.448C67.8583 39.0427 68.5783 38.84 69.4743 38.84C70.0716 38.84 70.6103 38.9573 71.0903 39.192C71.5703 39.416 71.9596 39.7413 72.2583 40.168L71.0743 41.048C70.7009 40.5893 70.1943 40.36 69.5543 40.36C69.2343 40.36 68.9836 40.4187 68.8023 40.536C68.6316 40.6427 68.5463 40.8027 68.5463 41.016C68.5463 41.1653 68.5836 41.288 68.6583 41.384C68.7329 41.48 68.8769 41.5813 69.0903 41.688C69.3036 41.7947 69.6449 41.9387 70.1143 42.12C70.7436 42.3653 71.2289 42.6053 71.5703 42.84C71.9223 43.064 72.1676 43.3147 72.3063 43.592C72.4556 43.8587 72.5303 44.184 72.5303 44.568C72.5303 45.08 72.3916 45.5333 72.1143 45.928C71.8476 46.312 71.4689 46.616 70.9783 46.84C70.4876 47.0533 69.9223 47.16 69.2823 47.16Z" fill="black"/>
</svg>
