<svg width="30" height="30" viewBox="0 0 30 30" fill="none" xmlns="http://www.w3.org/2000/svg">
<path d="M23.1178 0L15.001 1.71885L13.8281 5.00912L23.1178 3.83631V0Z" fill="#0150C1"/>
<path d="M5 3.83621L14.9993 5.00902V1.71875L5 3.83621Z" fill="#0150C1"/>
<path d="M25.0003 3.83594H15.001L13.8281 15.0355L15.001 29.9997H25.0003V3.83594Z" fill="#006EFD"/>
<path d="M14.9996 3.83594H5V29.9998H14.9996V3.83594Z" fill="#006EFD"/>
<path d="M7.88672 15.035C7.88672 18.9571 11.0776 22.1481 14.9998 22.1481V19.9632C14.4959 19.2723 13.8088 17.9761 13.6523 15.9139H14.9998V14.1561H13.6523C13.8084 12.0998 14.4919 10.8051 14.9954 10.1128C14.9968 10.1147 14.9983 10.1169 14.9998 10.1188V7.92188C11.0776 7.92193 7.88672 11.1128 7.88672 15.035ZM9.71701 15.9139H11.8904C12.0075 17.6847 12.4678 19.0255 12.9669 19.9891C11.2802 19.2944 10.0236 17.7626 9.71701 15.9139ZM12.9668 10.0809C12.4677 11.0445 12.0074 12.3853 11.8904 14.1561H9.71701C10.0236 12.3074 11.2801 10.7756 12.9668 10.0809Z" fill="white"/>
<path d="M16.3466 14.156H15V15.9138H16.3475C16.191 17.9761 15.504 19.2722 15.0001 19.9631V22.148C18.9222 22.148 22.1131 18.9571 22.1131 15.0349C22.1131 11.1128 18.9221 7.92188 15.0001 7.92188V10.1188C15.501 10.8166 16.1882 12.1199 16.3466 14.156ZM20.2828 14.156H18.1093C17.9923 12.3853 17.5321 11.0445 17.033 10.0809C18.7196 10.7756 19.9762 12.3073 20.2828 14.156ZM18.1094 15.9138H20.2828C19.9762 17.7626 18.7196 19.2943 17.033 19.989C17.5321 19.0254 17.9923 17.6846 18.1094 15.9138Z" fill="white"/>
<path d="M21.2344 24.1562H15V25.9141H21.2344V24.1562Z" fill="white"/>
<path d="M15 24.1562H8.76562V25.9141H15V24.1562Z" fill="white"/>
</svg>
